solid Mesh
  facet normal -0.707108 0 -0.707106
    outer loop
      vertex -4.99994 -222.216 250.953
      vertex -4.99994 -15.7654 250.953
      vertex -2.07101 -222.216 248.024
    endloop
  endfacet
  facet normal -0.707108 0 -0.707106
    outer loop
      vertex -4.99994 -15.7654 250.953
      vertex -2.07101 -15.7654 248.024
      vertex -2.07101 -222.216 248.024
    endloop
  endfacet
  facet normal -1 0 0
    outer loop
      vertex -4.99994 -222.216 255.095
      vertex -4.99994 -15.7654 255.095
      vertex -4.99994 -222.216 250.953
    endloop
  endfacet
  facet normal -1 0 0
    outer loop
      vertex -4.99994 -15.7654 255.095
      vertex -4.99994 -15.7654 250.953
      vertex -4.99994 -222.216 250.953
    endloop
  endfacet
  facet normal -0.707104 0 0.707109
    outer loop
      vertex -2.07101 -222.216 258.024
      vertex -2.07101 -15.7654 258.024
      vertex -4.99994 -222.216 255.095
    endloop
  endfacet
  facet normal -0.707104 0 0.707109
    outer loop
      vertex -2.07101 -15.7654 258.024
      vertex -4.99994 -15.7654 255.095
      vertex -4.99994 -222.216 255.095
    endloop
  endfacet
  facet normal 0 0 1
    outer loop
      vertex 2.07113 -222.216 258.024
      vertex 2.07113 -15.7654 258.024
      vertex -2.07101 -222.216 258.024
    endloop
  endfacet
  facet normal 0 0 1
    outer loop
      vertex 2.07113 -15.7654 258.024
      vertex -2.07101 -15.7654 258.024
      vertex -2.07101 -222.216 258.024
    endloop
  endfacet
  facet normal 0.707104 0 0.707109
    outer loop
      vertex 5.00006 -222.216 255.095
      vertex 5.00006 -15.7654 255.095
      vertex 2.07113 -222.216 258.024
    endloop
  endfacet
  facet normal 0.707104 0 0.707109
    outer loop
      vertex 5.00006 -15.7654 255.095
      vertex 2.07113 -15.7654 258.024
      vertex 2.07113 -222.216 258.024
    endloop
  endfacet
  facet normal 1 0 0
    outer loop
      vertex 5.00006 -222.216 250.953
      vertex 5.00006 -15.7654 250.953
      vertex 5.00006 -222.216 255.095
    endloop
  endfacet
  facet normal 1 0 0
    outer loop
      vertex 5.00006 -15.7654 250.953
      vertex 5.00006 -15.7654 255.095
      vertex 5.00006 -222.216 255.095
    endloop
  endfacet
  facet normal 0.707108 0 -0.707106
    outer loop
      vertex 2.07113 -222.216 248.024
      vertex 2.07113 -15.7654 248.024
      vertex 5.00006 -222.216 250.953
    endloop
  endfacet
  facet normal 0.707108 0 -0.707106
    outer loop
      vertex 2.07113 -15.7654 248.024
      vertex 5.00006 -15.7654 250.953
      vertex 5.00006 -222.216 250.953
    endloop
  endfacet
  facet normal 0 0 -1
    outer loop
      vertex -2.07101 -222.216 248.024
      vertex -2.07101 -15.7654 248.024
      vertex 2.07113 -222.216 248.024
    endloop
  endfacet
  facet normal 0 0 -1
    outer loop
      vertex -2.07101 -15.7654 248.024
      vertex 2.07113 -15.7654 248.024
      vertex 2.07113 -222.216 248.024
    endloop
  endfacet
  facet normal 0 1 0
    outer loop
      vertex -2.99994 -13.7654 254.267
      vertex -1.24258 -13.7654 256.024
      vertex 1.2427 -13.7654 256.024
    endloop
  endfacet
  facet normal 0 1 0
    outer loop
      vertex 3.00006 -13.7654 251.782
      vertex 1.2427 -13.7654 250.024
      vertex -1.24258 -13.7654 250.024
    endloop
  endfacet
  facet normal 0 1 0
    outer loop
      vertex 1.2427 -13.7654 256.024
      vertex 3.00006 -13.7654 254.267
      vertex -2.99994 -13.7654 254.267
    endloop
  endfacet
  facet normal 0 1 0
    outer loop
      vertex 3.00006 -13.7654 254.267
      vertex 3.00006 -13.7654 251.782
      vertex -2.99994 -13.7654 254.267
    endloop
  endfacet
  facet normal 0 1 0
    outer loop
      vertex -2.99994 -13.7654 254.267
      vertex 3.00006 -13.7654 251.782
      vertex -2.99994 -13.7654 251.782
    endloop
  endfacet
  facet normal 0 1 0
    outer loop
      vertex 3.00006 -13.7654 251.782
      vertex -1.24258 -13.7654 250.024
      vertex -2.99994 -13.7654 251.782
    endloop
  endfacet
  facet normal 0.707107 0.707107 0
    outer loop
      vertex 5.00006 -15.7654 250.953
      vertex 3.00006 -13.7654 251.782
      vertex 5.00006 -15.7654 255.095
    endloop
  endfacet
  facet normal 0.707107 0.707107 0
    outer loop
      vertex 3.00006 -13.7654 251.782
      vertex 3.00006 -13.7654 254.267
      vertex 5.00006 -15.7654 255.095
    endloop
  endfacet
  facet normal -0.499998 -0.707108 0.500001
    outer loop
      vertex -4.99994 -222.216 255.095
      vertex -2.99994 -224.216 254.267
      vertex -2.07101 -222.216 258.024
    endloop
  endfacet
  facet normal -0.500007 -0.707102 0.5
    outer loop
      vertex -2.99994 -224.216 254.267
      vertex -1.24258 -224.216 256.024
      vertex -2.07101 -222.216 258.024
    endloop
  endfacet
  facet normal 0 -0.707102 0.707112
    outer loop
      vertex -2.07101 -222.216 258.024
      vertex -1.24258 -224.216 256.024
      vertex 2.07113 -222.216 258.024
    endloop
  endfacet
  facet normal 0 -0.707102 0.707112
    outer loop
      vertex -1.24258 -224.216 256.024
      vertex 1.2427 -224.216 256.024
      vertex 2.07113 -222.216 258.024
    endloop
  endfacet
  facet normal 0.500001 -0.707103 0.500004
    outer loop
      vertex 2.07113 -222.216 258.024
      vertex 1.2427 -224.216 256.024
      vertex 5.00006 -222.216 255.095
    endloop
  endfacet
  facet normal 0.500002 -0.707109 0.499995
    outer loop
      vertex 1.2427 -224.216 256.024
      vertex 3.00006 -224.216 254.267
      vertex 5.00006 -222.216 255.095
    endloop
  endfacet
  facet normal 0.707108 -0.707106 0
    outer loop
      vertex 3.00006 -224.216 251.782
      vertex 5.00006 -222.216 250.953
      vertex 3.00006 -224.216 254.267
    endloop
  endfacet
  facet normal 0.707108 -0.707106 0
    outer loop
      vertex 5.00006 -222.216 250.953
      vertex 5.00006 -222.216 255.095
      vertex 3.00006 -224.216 254.267
    endloop
  endfacet
  facet normal 0 -0.707107 -0.707107
    outer loop
      vertex -1.24258 -224.216 250.024
      vertex -2.07101 -222.216 248.024
      vertex 1.2427 -224.216 250.024
    endloop
  endfacet
  facet normal 0 -0.707107 -0.707107
    outer loop
      vertex -2.07101 -222.216 248.024
      vertex 2.07113 -222.216 248.024
      vertex 1.2427 -224.216 250.024
    endloop
  endfacet
  facet normal 0.499999 -0.707107 -0.500001
    outer loop
      vertex 1.2427 -224.216 250.024
      vertex 2.07113 -222.216 248.024
      vertex 3.00006 -224.216 251.782
    endloop
  endfacet
  facet normal 0.500002 -0.707105 -0.5
    outer loop
      vertex 2.07113 -222.216 248.024
      vertex 5.00006 -222.216 250.953
      vertex 3.00006 -224.216 251.782
    endloop
  endfacet
  facet normal -0.707108 -0.707106 0
    outer loop
      vertex -2.99994 -224.216 254.267
      vertex -4.99994 -222.216 255.095
      vertex -2.99994 -224.216 251.782
    endloop
  endfacet
  facet normal -0.707108 -0.707106 0
    outer loop
      vertex -4.99994 -222.216 255.095
      vertex -4.99994 -222.216 250.953
      vertex -2.99994 -224.216 251.782
    endloop
  endfacet
  facet normal -0.500001 -0.707104 -0.500003
    outer loop
      vertex -2.99994 -224.216 251.782
      vertex -4.99994 -222.216 250.953
      vertex -1.24258 -224.216 250.024
    endloop
  endfacet
  facet normal -0.500001 -0.707106 -0.499999
    outer loop
      vertex -4.99994 -222.216 250.953
      vertex -2.07101 -222.216 248.024
      vertex -1.24258 -224.216 250.024
    endloop
  endfacet
  facet normal 0 -1 0
    outer loop
      vertex -2.99994 -224.216 251.782
      vertex -1.24258 -224.216 250.024
      vertex -2.99994 -224.216 254.267
    endloop
  endfacet
  facet normal 0 -1 0
    outer loop
      vertex -1.24258 -224.216 250.024
      vertex 1.2427 -224.216 250.024
      vertex -2.99994 -224.216 254.267
    endloop
  endfacet
  facet normal 0 -1 0
    outer loop
      vertex -2.99994 -224.216 254.267
      vertex 1.2427 -224.216 250.024
      vertex -1.24258 -224.216 256.024
    endloop
  endfacet
  facet normal 0 -1 0
    outer loop
      vertex 3.00006 -224.216 251.782
      vertex 3.00006 -224.216 254.267
      vertex 1.2427 -224.216 250.024
    endloop
  endfacet
  facet normal 0 -1 0
    outer loop
      vertex 3.00006 -224.216 254.267
      vertex 1.2427 -224.216 256.024
      vertex 1.2427 -224.216 250.024
    endloop
  endfacet
  facet normal 0 -1 0
    outer loop
      vertex 1.2427 -224.216 250.024
      vertex 1.2427 -224.216 256.024
      vertex -1.24258 -224.216 256.024
    endloop
  endfacet
  facet normal -0.707107 0.707107 0
    outer loop
      vertex -4.99994 -15.7654 255.095
      vertex -2.99994 -13.7654 254.267
      vertex -4.99994 -15.7654 250.953
    endloop
  endfacet
  facet normal -0.707107 0.707107 0
    outer loop
      vertex -2.99994 -13.7654 254.267
      vertex -2.99994 -13.7654 251.782
      vertex -4.99994 -15.7654 250.953
    endloop
  endfacet
  facet normal -0.500001 0.70711 0.499994
    outer loop
      vertex -2.99994 -13.7654 254.267
      vertex -4.99994 -15.7654 255.095
      vertex -1.24258 -13.7654 256.024
    endloop
  endfacet
  facet normal -0.5 0.707104 0.500004
    outer loop
      vertex -4.99994 -15.7654 255.095
      vertex -2.07101 -15.7654 258.024
      vertex -1.24258 -13.7654 256.024
    endloop
  endfacet
  facet normal -0.500002 0.707105 -0.5
    outer loop
      vertex -4.99994 -15.7654 250.953
      vertex -2.99994 -13.7654 251.782
      vertex -2.07101 -15.7654 248.024
    endloop
  endfacet
  facet normal -0.499999 0.707107 -0.5
    outer loop
      vertex -2.99994 -13.7654 251.782
      vertex -1.24258 -13.7654 250.024
      vertex -2.07101 -15.7654 248.024
    endloop
  endfacet
  facet normal 0 0.707102 0.707111
    outer loop
      vertex -1.24258 -13.7654 256.024
      vertex -2.07101 -15.7654 258.024
      vertex 1.2427 -13.7654 256.024
    endloop
  endfacet
  facet normal 0 0.707102 0.707111
    outer loop
      vertex -2.07101 -15.7654 258.024
      vertex 2.07113 -15.7654 258.024
      vertex 1.2427 -13.7654 256.024
    endloop
  endfacet
  facet normal 0 0.707107 -0.707106
    outer loop
      vertex -2.07101 -15.7654 248.024
      vertex -1.24258 -13.7654 250.024
      vertex 2.07113 -15.7654 248.024
    endloop
  endfacet
  facet normal 0 0.707107 -0.707106
    outer loop
      vertex -1.24258 -13.7654 250.024
      vertex 1.2427 -13.7654 250.024
      vertex 2.07113 -15.7654 248.024
    endloop
  endfacet
  facet normal 0.500006 0.707103 0.5
    outer loop
      vertex 1.2427 -13.7654 256.024
      vertex 2.07113 -15.7654 258.024
      vertex 3.00006 -13.7654 254.267
    endloop
  endfacet
  facet normal 0.499997 0.707108 0.5
    outer loop
      vertex 2.07113 -15.7654 258.024
      vertex 5.00006 -15.7654 255.095
      vertex 3.00006 -13.7654 254.267
    endloop
  endfacet
  facet normal 0.500001 0.707107 -0.499999
    outer loop
      vertex 2.07113 -15.7654 248.024
      vertex 1.2427 -13.7654 250.024
      vertex 5.00006 -15.7654 250.953
    endloop
  endfacet
  facet normal 0.5 0.707105 -0.500002
    outer loop
      vertex 1.2427 -13.7654 250.024
      vertex 3.00006 -13.7654 251.782
      vertex 5.00006 -15.7654 250.953
    endloop
  endfacet
endsolid Mesh
