solid Mesh
  facet normal 1 0 0
    outer loop
      vertex -526.225 -193.932 470.098
      vertex -526.225 -219.679 470.098
      vertex -526.225 -193.932 461.752
    endloop
  endfacet
  facet normal 1 0 0
    outer loop
      vertex -526.225 -219.679 470.098
      vertex -526.225 -219.679 461.752
      vertex -526.225 -193.932 461.752
    endloop
  endfacet
  facet normal 0 1 0
    outer loop
      vertex -492.25 -227.907 461.752
      vertex -517.998 -227.907 461.752
      vertex -492.25 -227.907 470.098
    endloop
  endfacet
  facet normal 0 1 0
    outer loop
      vertex -517.998 -227.907 461.752
      vertex -517.998 -227.907 470.098
      vertex -492.25 -227.907 470.098
    endloop
  endfacet
  facet normal -0.707106 -0.707108 0
    outer loop
      vertex -540.474 -248.057 437.725
      vertex -540.474 -248.057 463.183
      vertex -546.375 -242.155 437.725
    endloop
  endfacet
  facet normal -0.707106 -0.707108 0
    outer loop
      vertex -540.474 -248.057 463.183
      vertex -546.375 -242.155 463.183
      vertex -546.375 -242.155 437.725
    endloop
  endfacet
  facet normal 0 -0.707108 0.707106
    outer loop
      vertex -492.25 -242.155 476
      vertex -533.684 -242.155 476
      vertex -492.25 -248.057 470.098
    endloop
  endfacet
  facet normal 0 -0.707108 0.707106
    outer loop
      vertex -533.684 -242.155 476
      vertex -533.626 -248.057 470.098
      vertex -492.25 -248.057 470.098
    endloop
  endfacet
  facet normal -0.707107 0 0.707107
    outer loop
      vertex -546.375 -193.932 470.098
      vertex -546.375 -235.307 470.098
      vertex -540.474 -193.932 476
    endloop
  endfacet
  facet normal -0.707107 0 0.707107
    outer loop
      vertex -546.375 -235.307 470.098
      vertex -540.474 -235.365 476
      vertex -540.474 -193.932 476
    endloop
  endfacet
  facet normal -1 0 0
    outer loop
      vertex -546.375 -233.808 461.752
      vertex -546.375 -233.808 437.725
      vertex -546.375 -242.155 437.725
    endloop
  endfacet
  facet normal -1 0 0
    outer loop
      vertex -546.375 -193.932 470.098
      vertex -546.375 -193.932 461.752
      vertex -546.375 -235.307 470.098
    endloop
  endfacet
  facet normal -1 0 0
    outer loop
      vertex -546.375 -193.932 461.752
      vertex -546.375 -233.808 461.752
      vertex -546.375 -235.307 470.098
    endloop
  endfacet
  facet normal -1 0 0
    outer loop
      vertex -546.375 -235.307 470.098
      vertex -546.375 -233.808 461.752
      vertex -546.375 -242.155 463.183
    endloop
  endfacet
  facet normal -1 0 0
    outer loop
      vertex -546.375 -233.808 461.752
      vertex -546.375 -242.155 437.725
      vertex -546.375 -242.155 463.183
    endloop
  endfacet
  facet normal 0 0 1
    outer loop
      vertex -532.127 -193.932 476
      vertex -540.474 -193.932 476
      vertex -532.127 -225.892 476
    endloop
  endfacet
  facet normal 0 0 1
    outer loop
      vertex -540.474 -193.932 476
      vertex -540.474 -235.365 476
      vertex -532.127 -225.892 476
    endloop
  endfacet
  facet normal 0 0 1
    outer loop
      vertex -532.127 -225.892 476
      vertex -540.474 -235.365 476
      vertex -524.21 -233.808 476
    endloop
  endfacet
  facet normal 0 0 1
    outer loop
      vertex -540.474 -235.365 476
      vertex -533.684 -242.155 476
      vertex -524.21 -233.808 476
    endloop
  endfacet
  facet normal 0 0 1
    outer loop
      vertex -524.21 -233.808 476
      vertex -533.684 -242.155 476
      vertex -492.25 -233.808 476
    endloop
  endfacet
  facet normal 0 0 1
    outer loop
      vertex -533.684 -242.155 476
      vertex -492.25 -242.155 476
      vertex -492.25 -233.808 476
    endloop
  endfacet
  facet normal -0.707106 0.707108 0
    outer loop
      vertex -546.375 -233.808 437.725
      vertex -546.375 -233.808 461.752
      vertex -540.474 -227.907 437.725
    endloop
  endfacet
  facet normal -0.707106 0.707108 0
    outer loop
      vertex -546.375 -233.808 461.752
      vertex -540.474 -227.907 455.85
      vertex -540.474 -227.907 437.725
    endloop
  endfacet
  facet normal 1 0 0
    outer loop
      vertex -526.225 -233.808 437.725
      vertex -526.225 -233.808 455.85
      vertex -526.225 -242.155 437.725
    endloop
  endfacet
  facet normal 1 0 0
    outer loop
      vertex -526.225 -233.808 455.85
      vertex -526.225 -242.155 455.85
      vertex -526.225 -242.155 437.725
    endloop
  endfacet
  facet normal 0 1 0
    outer loop
      vertex -540.474 -227.907 437.725
      vertex -540.474 -227.907 455.85
      vertex -532.127 -227.907 437.725
    endloop
  endfacet
  facet normal 0 1 0
    outer loop
      vertex -540.474 -227.907 455.85
      vertex -532.127 -227.907 455.85
      vertex -532.127 -227.907 437.725
    endloop
  endfacet
  facet normal 0 1 0
    outer loop
      vertex -533.37 -193.432 458.85
      vertex -532.334 -193.432 456.35
      vertex -539.231 -193.432 458.85
    endloop
  endfacet
  facet normal 0 1 0
    outer loop
      vertex -532.334 -193.432 456.35
      vertex -540.266 -193.432 456.35
      vertex -539.231 -193.432 458.85
    endloop
  endfacet
  facet normal 0 1 0
    outer loop
      vertex -539.231 -193.432 458.85
      vertex -540.266 -193.432 456.35
      vertex -543.375 -193.432 462.994
    endloop
  endfacet
  facet normal 0 1 0
    outer loop
      vertex -540.266 -193.432 456.35
      vertex -545.875 -193.432 461.959
      vertex -543.375 -193.432 462.994
    endloop
  endfacet
  facet normal 0 1 0
    outer loop
      vertex -543.375 -193.432 462.994
      vertex -545.875 -193.432 461.959
      vertex -543.375 -193.432 468.856
    endloop
  endfacet
  facet normal 0 1 0
    outer loop
      vertex -545.875 -193.432 461.959
      vertex -545.875 -193.432 469.891
      vertex -543.375 -193.432 468.856
    endloop
  endfacet
  facet normal 0 1 0
    outer loop
      vertex -543.375 -193.432 468.856
      vertex -545.875 -193.432 469.891
      vertex -539.231 -193.432 473
    endloop
  endfacet
  facet normal 0 1 0
    outer loop
      vertex -545.875 -193.432 469.891
      vertex -540.266 -193.432 475.5
      vertex -539.231 -193.432 473
    endloop
  endfacet
  facet normal 0 1 0
    outer loop
      vertex -539.231 -193.432 473
      vertex -540.266 -193.432 475.5
      vertex -533.37 -193.432 473
    endloop
  endfacet
  facet normal 0 1 0
    outer loop
      vertex -540.266 -193.432 475.5
      vertex -532.334 -193.432 475.5
      vertex -533.37 -193.432 473
    endloop
  endfacet
  facet normal 0 1 0
    outer loop
      vertex -533.37 -193.432 473
      vertex -532.334 -193.432 475.5
      vertex -529.225 -193.432 468.856
    endloop
  endfacet
  facet normal 0 1 0
    outer loop
      vertex -532.334 -193.432 475.5
      vertex -526.725 -193.432 469.891
      vertex -529.225 -193.432 468.856
    endloop
  endfacet
  facet normal 0 1 0
    outer loop
      vertex -529.225 -193.432 468.856
      vertex -526.725 -193.432 469.891
      vertex -529.225 -193.432 462.994
    endloop
  endfacet
  facet normal 0 1 0
    outer loop
      vertex -526.725 -193.432 469.891
      vertex -526.725 -193.432 461.959
      vertex -529.225 -193.432 462.994
    endloop
  endfacet
  facet normal 0 1 0
    outer loop
      vertex -529.225 -193.432 462.994
      vertex -526.725 -193.432 461.959
      vertex -533.37 -193.432 458.85
    endloop
  endfacet
  facet normal 0 1 0
    outer loop
      vertex -526.725 -193.432 461.959
      vertex -532.334 -193.432 456.35
      vertex -533.37 -193.432 458.85
    endloop
  endfacet
  facet normal 0 1 0
    outer loop
      vertex -537.574 -224.207 462.85
      vertex -539.375 -224.207 464.651
      vertex -539.375 -224.207 467.199
    endloop
  endfacet
  facet normal 0 1 0
    outer loop
      vertex -535.027 -224.207 469
      vertex -533.225 -224.207 467.199
      vertex -533.225 -224.207 464.651
    endloop
  endfacet
  facet normal 0 1 0
    outer loop
      vertex -535.027 -224.207 469
      vertex -533.225 -224.207 464.651
      vertex -537.574 -224.207 469
    endloop
  endfacet
  facet normal 0 1 0
    outer loop
      vertex -537.574 -224.207 469
      vertex -533.225 -224.207 464.651
      vertex -539.375 -224.207 467.199
    endloop
  endfacet
  facet normal 0 1 0
    outer loop
      vertex -533.225 -224.207 464.651
      vertex -535.027 -224.207 462.85
      vertex -539.375 -224.207 467.199
    endloop
  endfacet
  facet normal 0 1 0
    outer loop
      vertex -539.375 -224.207 467.199
      vertex -535.027 -224.207 462.85
      vertex -537.574 -224.207 462.85
    endloop
  endfacet
  facet normal 1 0 0
    outer loop
      vertex -541.375 -195.432 468.027
      vertex -541.375 -222.207 468.027
      vertex -541.375 -195.432 463.823
    endloop
  endfacet
  facet normal 1 0 0
    outer loop
      vertex -541.375 -222.207 468.027
      vertex -541.375 -222.207 463.823
      vertex -541.375 -195.432 463.823
    endloop
  endfacet
  facet normal 0.70711 0 0.707103
    outer loop
      vertex -541.375 -195.432 463.823
      vertex -541.375 -222.207 463.823
      vertex -538.402 -195.432 460.85
    endloop
  endfacet
  facet normal 0.70711 0 0.707103
    outer loop
      vertex -541.375 -222.207 463.823
      vertex -538.402 -222.207 460.85
      vertex -538.402 -195.432 460.85
    endloop
  endfacet
  facet normal 0.707107 0 -0.707107
    outer loop
      vertex -538.402 -195.432 471
      vertex -538.402 -222.207 471
      vertex -541.375 -195.432 468.027
    endloop
  endfacet
  facet normal 0.707107 0 -0.707107
    outer loop
      vertex -538.402 -222.207 471
      vertex -541.375 -222.207 468.027
      vertex -541.375 -195.432 468.027
    endloop
  endfacet
  facet normal 0 0 1
    outer loop
      vertex -538.402 -195.432 460.85
      vertex -538.402 -222.207 460.85
      vertex -534.198 -195.432 460.85
    endloop
  endfacet
  facet normal 0 0 1
    outer loop
      vertex -538.402 -222.207 460.85
      vertex -534.198 -222.207 460.85
      vertex -534.198 -195.432 460.85
    endloop
  endfacet
  facet normal -0.70711 0 0.707103
    outer loop
      vertex -534.198 -195.432 460.85
      vertex -534.198 -222.207 460.85
      vertex -531.225 -195.432 463.823
    endloop
  endfacet
  facet normal -0.70711 0 0.707103
    outer loop
      vertex -534.198 -222.207 460.85
      vertex -531.225 -222.207 463.823
      vertex -531.225 -195.432 463.823
    endloop
  endfacet
  facet normal -0.707107 0 -0.707107
    outer loop
      vertex -531.225 -195.432 468.027
      vertex -531.225 -222.207 468.027
      vertex -534.198 -195.432 471
    endloop
  endfacet
  facet normal -0.707107 0 -0.707107
    outer loop
      vertex -531.225 -222.207 468.027
      vertex -534.198 -222.207 471
      vertex -534.198 -195.432 471
    endloop
  endfacet
  facet normal -1 0 0
    outer loop
      vertex -531.225 -195.432 463.823
      vertex -531.225 -222.207 463.823
      vertex -531.225 -195.432 468.027
    endloop
  endfacet
  facet normal -1 0 0
    outer loop
      vertex -531.225 -222.207 463.823
      vertex -531.225 -222.207 468.027
      vertex -531.225 -195.432 468.027
    endloop
  endfacet
  facet normal 0 0 -1
    outer loop
      vertex -534.198 -195.432 471
      vertex -534.198 -222.207 471
      vertex -538.402 -195.432 471
    endloop
  endfacet
  facet normal 0 0 -1
    outer loop
      vertex -534.198 -222.207 471
      vertex -538.402 -222.207 471
      vertex -538.402 -195.432 471
    endloop
  endfacet
  facet normal 0.707109 0.707104 0
    outer loop
      vertex -532.127 -227.907 437.725
      vertex -532.127 -227.907 455.85
      vertex -526.225 -233.808 437.725
    endloop
  endfacet
  facet normal 0.707109 0.707104 0
    outer loop
      vertex -532.127 -227.907 455.85
      vertex -526.225 -233.808 455.85
      vertex -526.225 -233.808 437.725
    endloop
  endfacet
  facet normal 0 -1 0
    outer loop
      vertex -532.127 -248.057 437.725
      vertex -532.127 -248.057 461.752
      vertex -540.474 -248.057 437.725
    endloop
  endfacet
  facet normal 0 -1 0
    outer loop
      vertex -532.127 -248.057 461.752
      vertex -540.474 -248.057 463.183
      vertex -540.474 -248.057 437.725
    endloop
  endfacet
  facet normal 0 -1 0
    outer loop
      vertex -492.25 -248.057 461.752
      vertex -492.25 -248.057 470.098
      vertex -532.127 -248.057 461.752
    endloop
  endfacet
  facet normal 0 -1 0
    outer loop
      vertex -492.25 -248.057 470.098
      vertex -533.626 -248.057 470.098
      vertex -532.127 -248.057 461.752
    endloop
  endfacet
  facet normal 0 -1 0
    outer loop
      vertex -532.127 -248.057 461.752
      vertex -533.626 -248.057 470.098
      vertex -540.474 -248.057 463.183
    endloop
  endfacet
  facet normal 0.707109 -0.707104 0
    outer loop
      vertex -526.225 -242.155 437.725
      vertex -526.225 -242.155 455.85
      vertex -532.127 -248.057 437.725
    endloop
  endfacet
  facet normal 0.707109 -0.707104 0
    outer loop
      vertex -526.225 -242.155 455.85
      vertex -532.127 -248.057 461.752
      vertex -532.127 -248.057 437.725
    endloop
  endfacet
  facet normal 0 0 -1
    outer loop
      vertex -534.985 -241.157 468
      vertex -537.615 -241.157 468
      vertex -539.475 -239.297 468
    endloop
  endfacet
  facet normal 0 0 -1
    outer loop
      vertex -533.125 -236.667 468
      vertex -533.125 -239.297 468
      vertex -534.985 -234.807 468
    endloop
  endfacet
  facet normal 0 0 -1
    outer loop
      vertex -533.125 -239.297 468
      vertex -534.985 -241.157 468
      vertex -534.985 -234.807 468
    endloop
  endfacet
  facet normal 0 0 -1
    outer loop
      vertex -534.985 -234.807 468
      vertex -534.985 -241.157 468
      vertex -537.615 -234.807 468
    endloop
  endfacet
  facet normal 0 0 -1
    outer loop
      vertex -534.985 -241.157 468
      vertex -539.475 -239.297 468
      vertex -537.615 -234.807 468
    endloop
  endfacet
  facet normal 0 0 -1
    outer loop
      vertex -537.615 -234.807 468
      vertex -539.475 -239.297 468
      vertex -539.475 -236.667 468
    endloop
  endfacet
  facet normal 1 0 0
    outer loop
      vertex -541.475 -235.838 439.225
      vertex -541.475 -235.838 466
      vertex -541.475 -240.125 439.225
    endloop
  endfacet
  facet normal 1 0 0
    outer loop
      vertex -541.475 -235.838 466
      vertex -541.475 -240.125 466
      vertex -541.475 -240.125 439.225
    endloop
  endfacet
  facet normal 0.707109 -0.707105 0
    outer loop
      vertex -538.444 -232.807 439.225
      vertex -538.444 -232.807 466
      vertex -541.475 -235.838 439.225
    endloop
  endfacet
  facet normal 0.707109 -0.707105 0
    outer loop
      vertex -538.444 -232.807 466
      vertex -541.475 -235.838 466
      vertex -541.475 -235.838 439.225
    endloop
  endfacet
  facet normal 0 -1 0
    outer loop
      vertex -534.157 -232.807 439.225
      vertex -534.157 -232.807 466
      vertex -538.444 -232.807 439.225
    endloop
  endfacet
  facet normal 0 -1 0
    outer loop
      vertex -534.157 -232.807 466
      vertex -538.444 -232.807 466
      vertex -538.444 -232.807 439.225
    endloop
  endfacet
  facet normal -0.707109 -0.707105 0
    outer loop
      vertex -531.125 -235.838 439.225
      vertex -531.125 -235.838 466
      vertex -534.157 -232.807 439.225
    endloop
  endfacet
  facet normal -0.707109 -0.707105 0
    outer loop
      vertex -531.125 -235.838 466
      vertex -534.157 -232.807 466
      vertex -534.157 -232.807 439.225
    endloop
  endfacet
  facet normal -1 0 0
    outer loop
      vertex -531.125 -240.125 439.225
      vertex -531.125 -240.125 466
      vertex -531.125 -235.838 439.225
    endloop
  endfacet
  facet normal -1 0 0
    outer loop
      vertex -531.125 -240.125 466
      vertex -531.125 -235.838 466
      vertex -531.125 -235.838 439.225
    endloop
  endfacet
  facet normal -0.707109 0.707105 0
    outer loop
      vertex -534.157 -243.157 439.225
      vertex -534.157 -243.157 466
      vertex -531.125 -240.125 439.225
    endloop
  endfacet
  facet normal -0.707109 0.707105 0
    outer loop
      vertex -534.157 -243.157 466
      vertex -531.125 -240.125 466
      vertex -531.125 -240.125 439.225
    endloop
  endfacet
  facet normal 0 1 0
    outer loop
      vertex -538.444 -243.157 439.225
      vertex -538.444 -243.157 466
      vertex -534.157 -243.157 439.225
    endloop
  endfacet
  facet normal 0 1 0
    outer loop
      vertex -538.444 -243.157 466
      vertex -534.157 -243.157 466
      vertex -534.157 -243.157 439.225
    endloop
  endfacet
  facet normal 0.707109 0.707105 0
    outer loop
      vertex -541.475 -240.125 439.225
      vertex -541.475 -240.125 466
      vertex -538.444 -243.157 439.225
    endloop
  endfacet
  facet normal 0.707109 0.707105 0
    outer loop
      vertex -541.475 -240.125 466
      vertex -538.444 -243.157 466
      vertex -538.444 -243.157 439.225
    endloop
  endfacet
  facet normal 0 0 -1
    outer loop
      vertex -529.125 -235.01 437.225
      vertex -526.725 -234.016 437.225
      vertex -529.125 -240.954 437.225
    endloop
  endfacet
  facet normal 0 0 -1
    outer loop
      vertex -526.725 -234.016 437.225
      vertex -526.725 -241.948 437.225
      vertex -529.125 -240.954 437.225
    endloop
  endfacet
  facet normal 0 0 -1
    outer loop
      vertex -529.125 -240.954 437.225
      vertex -526.725 -241.948 437.225
      vertex -533.328 -245.157 437.225
    endloop
  endfacet
  facet normal 0 0 -1
    outer loop
      vertex -526.725 -241.948 437.225
      vertex -532.334 -247.557 437.225
      vertex -533.328 -245.157 437.225
    endloop
  endfacet
  facet normal 0 0 -1
    outer loop
      vertex -533.328 -245.157 437.225
      vertex -532.334 -247.557 437.225
      vertex -539.272 -245.157 437.225
    endloop
  endfacet
  facet normal 0 0 -1
    outer loop
      vertex -532.334 -247.557 437.225
      vertex -540.266 -247.557 437.225
      vertex -539.272 -245.157 437.225
    endloop
  endfacet
  facet normal 0 0 -1
    outer loop
      vertex -539.272 -245.157 437.225
      vertex -540.266 -247.557 437.225
      vertex -543.475 -240.954 437.225
    endloop
  endfacet
  facet normal 0 0 -1
    outer loop
      vertex -540.266 -247.557 437.225
      vertex -545.875 -241.948 437.225
      vertex -543.475 -240.954 437.225
    endloop
  endfacet
  facet normal 0 0 -1
    outer loop
      vertex -543.475 -240.954 437.225
      vertex -545.875 -241.948 437.225
      vertex -543.475 -235.01 437.225
    endloop
  endfacet
  facet normal 0 0 -1
    outer loop
      vertex -545.875 -241.948 437.225
      vertex -545.875 -234.016 437.225
      vertex -543.475 -235.01 437.225
    endloop
  endfacet
  facet normal 0 0 -1
    outer loop
      vertex -543.475 -235.01 437.225
      vertex -545.875 -234.016 437.225
      vertex -539.272 -230.807 437.225
    endloop
  endfacet
  facet normal 0 0 -1
    outer loop
      vertex -545.875 -234.016 437.225
      vertex -540.266 -228.407 437.225
      vertex -539.272 -230.807 437.225
    endloop
  endfacet
  facet normal 0 0 -1
    outer loop
      vertex -539.272 -230.807 437.225
      vertex -540.266 -228.407 437.225
      vertex -533.328 -230.807 437.225
    endloop
  endfacet
  facet normal 0 0 -1
    outer loop
      vertex -540.266 -228.407 437.225
      vertex -532.334 -228.407 437.225
      vertex -533.328 -230.807 437.225
    endloop
  endfacet
  facet normal 0 0 -1
    outer loop
      vertex -533.328 -230.807 437.225
      vertex -532.334 -228.407 437.225
      vertex -529.125 -235.01 437.225
    endloop
  endfacet
  facet normal 0 0 -1
    outer loop
      vertex -532.334 -228.407 437.225
      vertex -526.725 -234.016 437.225
      vertex -529.125 -235.01 437.225
    endloop
  endfacet
  facet normal 0 -0.707106 -0.707108
    outer loop
      vertex -492.25 -248.057 461.752
      vertex -532.127 -248.057 461.752
      vertex -492.25 -242.155 455.85
    endloop
  endfacet
  facet normal 0 -0.707106 -0.707108
    outer loop
      vertex -532.127 -248.057 461.752
      vertex -526.225 -242.155 455.85
      vertex -492.25 -242.155 455.85
    endloop
  endfacet
  facet normal 0 0.707106 -0.707108
    outer loop
      vertex -492.25 -227.907 461.752
      vertex -492.25 -233.808 455.85
      vertex -517.998 -227.907 461.752
    endloop
  endfacet
  facet normal 0 0.707106 -0.707108
    outer loop
      vertex -492.25 -233.808 455.85
      vertex -524.21 -233.808 455.85
      vertex -517.998 -227.907 461.752
    endloop
  endfacet
  facet normal -3.39572e-5 0.707124 -0.70709
    outer loop
      vertex -517.998 -227.907 461.752
      vertex -524.21 -233.808 455.85
      vertex -518.153 -227.751 461.907
    endloop
  endfacet
  facet normal 0 0.707108 0.707106
    outer loop
      vertex -492.25 -233.808 476
      vertex -492.25 -227.907 470.098
      vertex -524.21 -233.808 476
    endloop
  endfacet
  facet normal 0 0.707108 0.707106
    outer loop
      vertex -492.25 -227.907 470.098
      vertex -517.998 -227.907 470.098
      vertex -524.21 -233.808 476
    endloop
  endfacet
  facet normal 3.39589e-5 0.70709 0.707124
    outer loop
      vertex -524.21 -233.808 476
      vertex -517.998 -227.907 470.098
      vertex -518.153 -227.751 469.943
    endloop
  endfacet
  facet normal 1 0 0
    outer loop
      vertex -522.526 -241.057 464.651
      vertex -522.526 -239.255 462.85
      vertex -522.526 -241.057 467.199
    endloop
  endfacet
  facet normal 1 0 0
    outer loop
      vertex -522.526 -239.255 462.85
      vertex -522.526 -236.708 462.85
      vertex -522.526 -241.057 467.199
    endloop
  endfacet
  facet normal 1 0 0
    outer loop
      vertex -522.526 -241.057 467.199
      vertex -522.526 -236.708 462.85
      vertex -522.526 -239.255 469
    endloop
  endfacet
  facet normal 1 0 0
    outer loop
      vertex -522.526 -236.708 462.85
      vertex -522.526 -234.907 464.651
      vertex -522.526 -239.255 469
    endloop
  endfacet
  facet normal 1 0 0
    outer loop
      vertex -522.526 -239.255 469
      vertex -522.526 -234.907 464.651
      vertex -522.526 -236.708 469
    endloop
  endfacet
  facet normal 1 0 0
    outer loop
      vertex -522.526 -234.907 464.651
      vertex -522.526 -234.907 467.199
      vertex -522.526 -236.708 469
    endloop
  endfacet
  facet normal 0 0.707103 -0.70711
    outer loop
      vertex -493.75 -243.057 468.027
      vertex -520.526 -243.057 468.027
      vertex -493.75 -240.084 471
    endloop
  endfacet
  facet normal 0 0.707103 -0.70711
    outer loop
      vertex -520.526 -243.057 468.027
      vertex -520.526 -240.084 471
      vertex -493.75 -240.084 471
    endloop
  endfacet
  facet normal 0 1 0
    outer loop
      vertex -493.75 -243.057 463.823
      vertex -520.526 -243.057 463.823
      vertex -493.75 -243.057 468.027
    endloop
  endfacet
  facet normal 0 1 0
    outer loop
      vertex -520.526 -243.057 463.823
      vertex -520.526 -243.057 468.027
      vertex -493.75 -243.057 468.027
    endloop
  endfacet
  facet normal 0 0.707107 0.707107
    outer loop
      vertex -493.75 -240.084 460.85
      vertex -520.526 -240.084 460.85
      vertex -493.75 -243.057 463.823
    endloop
  endfacet
  facet normal 0 0.707107 0.707107
    outer loop
      vertex -520.526 -240.084 460.85
      vertex -520.526 -243.057 463.823
      vertex -493.75 -243.057 463.823
    endloop
  endfacet
  facet normal 0 0 1
    outer loop
      vertex -493.75 -235.879 460.85
      vertex -520.526 -235.879 460.85
      vertex -493.75 -240.084 460.85
    endloop
  endfacet
  facet normal 0 0 1
    outer loop
      vertex -520.526 -235.879 460.85
      vertex -520.526 -240.084 460.85
      vertex -493.75 -240.084 460.85
    endloop
  endfacet
  facet normal 0 -0.707107 0.707107
    outer loop
      vertex -493.75 -232.907 463.823
      vertex -520.526 -232.907 463.823
      vertex -493.75 -235.879 460.85
    endloop
  endfacet
  facet normal 0 -0.707107 0.707107
    outer loop
      vertex -520.526 -232.907 463.823
      vertex -520.526 -235.879 460.85
      vertex -493.75 -235.879 460.85
    endloop
  endfacet
  facet normal 0 -1 0
    outer loop
      vertex -493.75 -232.907 468.027
      vertex -520.526 -232.907 468.027
      vertex -493.75 -232.907 463.823
    endloop
  endfacet
  facet normal 0 -1 0
    outer loop
      vertex -520.526 -232.907 468.027
      vertex -520.526 -232.907 463.823
      vertex -493.75 -232.907 463.823
    endloop
  endfacet
  facet normal 0 -0.707103 -0.70711
    outer loop
      vertex -493.75 -235.879 471
      vertex -520.526 -235.879 471
      vertex -493.75 -232.907 468.027
    endloop
  endfacet
  facet normal 0 -0.707103 -0.70711
    outer loop
      vertex -520.526 -235.879 471
      vertex -520.526 -232.907 468.027
      vertex -493.75 -232.907 468.027
    endloop
  endfacet
  facet normal 0 0 -1
    outer loop
      vertex -493.75 -240.084 471
      vertex -520.526 -240.084 471
      vertex -493.75 -235.879 471
    endloop
  endfacet
  facet normal 0 0 -1
    outer loop
      vertex -520.526 -240.084 471
      vertex -520.526 -235.879 471
      vertex -493.75 -235.879 471
    endloop
  endfacet
  facet normal 1 0 0
    outer loop
      vertex -491.75 -230.907 462.994
      vertex -491.75 -228.407 461.959
      vertex -491.75 -230.907 468.856
    endloop
  endfacet
  facet normal 1 0 0
    outer loop
      vertex -491.75 -228.407 461.959
      vertex -491.75 -228.407 469.891
      vertex -491.75 -230.907 468.856
    endloop
  endfacet
  facet normal 1 0 0
    outer loop
      vertex -491.75 -230.907 468.856
      vertex -491.75 -228.407 469.891
      vertex -491.75 -235.051 473
    endloop
  endfacet
  facet normal 1 0 0
    outer loop
      vertex -491.75 -228.407 469.891
      vertex -491.75 -234.016 475.5
      vertex -491.75 -235.051 473
    endloop
  endfacet
  facet normal 1 0 0
    outer loop
      vertex -491.75 -235.051 473
      vertex -491.75 -234.016 475.5
      vertex -491.75 -240.912 473
    endloop
  endfacet
  facet normal 1 0 0
    outer loop
      vertex -491.75 -234.016 475.5
      vertex -491.75 -241.948 475.5
      vertex -491.75 -240.912 473
    endloop
  endfacet
  facet normal 1 0 0
    outer loop
      vertex -491.75 -240.912 473
      vertex -491.75 -241.948 475.5
      vertex -491.75 -245.057 468.856
    endloop
  endfacet
  facet normal 1 0 0
    outer loop
      vertex -491.75 -241.948 475.5
      vertex -491.75 -247.557 469.891
      vertex -491.75 -245.057 468.856
    endloop
  endfacet
  facet normal 1 0 0
    outer loop
      vertex -491.75 -245.057 468.856
      vertex -491.75 -247.557 469.891
      vertex -491.75 -245.057 462.994
    endloop
  endfacet
  facet normal 1 0 0
    outer loop
      vertex -491.75 -247.557 469.891
      vertex -491.75 -247.557 461.959
      vertex -491.75 -245.057 462.994
    endloop
  endfacet
  facet normal 1 0 0
    outer loop
      vertex -491.75 -245.057 462.994
      vertex -491.75 -247.557 461.959
      vertex -491.75 -240.912 458.85
    endloop
  endfacet
  facet normal 1 0 0
    outer loop
      vertex -491.75 -247.557 461.959
      vertex -491.75 -241.948 456.35
      vertex -491.75 -240.912 458.85
    endloop
  endfacet
  facet normal 1 0 0
    outer loop
      vertex -491.75 -240.912 458.85
      vertex -491.75 -241.948 456.35
      vertex -491.75 -235.051 458.85
    endloop
  endfacet
  facet normal 1 0 0
    outer loop
      vertex -491.75 -241.948 456.35
      vertex -491.75 -234.016 456.35
      vertex -491.75 -235.051 458.85
    endloop
  endfacet
  facet normal 1 0 0
    outer loop
      vertex -491.75 -235.051 458.85
      vertex -491.75 -234.016 456.35
      vertex -491.75 -230.907 462.994
    endloop
  endfacet
  facet normal 1 0 0
    outer loop
      vertex -491.75 -234.016 456.35
      vertex -491.75 -228.407 461.959
      vertex -491.75 -230.907 462.994
    endloop
  endfacet
  facet normal 0.70711 0 0.707103
    outer loop
      vertex -526.225 -193.932 470.098
      vertex -532.127 -193.932 476
      vertex -526.225 -219.679 470.098
    endloop
  endfacet
  facet normal 0.70711 0 0.707103
    outer loop
      vertex -532.127 -193.932 476
      vertex -532.127 -225.892 476
      vertex -526.225 -219.679 470.098
    endloop
  endfacet
  facet normal 0.707074 6.96587e-5 0.70714
    outer loop
      vertex -526.225 -219.679 470.098
      vertex -532.127 -225.892 476
      vertex -526.07 -219.835 469.943
    endloop
  endfacet
  facet normal 0.707109 0 -0.707105
    outer loop
      vertex -532.127 -193.932 455.85
      vertex -526.225 -193.932 461.752
      vertex -532.127 -225.892 455.85
    endloop
  endfacet
  facet normal 0.707109 0 -0.707105
    outer loop
      vertex -526.225 -193.932 461.752
      vertex -526.225 -219.679 461.752
      vertex -532.127 -225.892 455.85
    endloop
  endfacet
  facet normal 0.707108 1.7397e-6 -0.707106
    outer loop
      vertex -532.127 -225.892 455.85
      vertex -526.225 -219.679 461.752
      vertex -526.07 -219.835 461.907
    endloop
  endfacet
  facet normal 0.707107 -0.707107 0
    outer loop
      vertex -491.75 -230.907 468.856
      vertex -493.75 -232.907 468.027
      vertex -491.75 -230.907 462.994
    endloop
  endfacet
  facet normal 0.707107 -0.707107 0
    outer loop
      vertex -493.75 -232.907 468.027
      vertex -493.75 -232.907 463.823
      vertex -491.75 -230.907 462.994
    endloop
  endfacet
  facet normal 0.707108 0.499997 -0.500002
    outer loop
      vertex -493.75 -240.084 471
      vertex -491.75 -240.912 473
      vertex -493.75 -243.057 468.027
    endloop
  endfacet
  facet normal 0.707105 0.5 -0.500002
    outer loop
      vertex -491.75 -240.912 473
      vertex -491.75 -245.057 468.856
      vertex -493.75 -243.057 468.027
    endloop
  endfacet
  facet normal 0.707107 -0.499999 -0.500001
    outer loop
      vertex -491.75 -235.051 473
      vertex -493.75 -235.879 471
      vertex -491.75 -230.907 468.856
    endloop
  endfacet
  facet normal 0.707104 -0.499999 -0.500004
    outer loop
      vertex -493.75 -235.879 471
      vertex -493.75 -232.907 468.027
      vertex -491.75 -230.907 468.856
    endloop
  endfacet
  facet normal 0.707107 0 -0.707107
    outer loop
      vertex -493.75 -235.879 471
      vertex -491.75 -235.051 473
      vertex -493.75 -240.084 471
    endloop
  endfacet
  facet normal 0.707107 0 -0.707107
    outer loop
      vertex -491.75 -235.051 473
      vertex -491.75 -240.912 473
      vertex -493.75 -240.084 471
    endloop
  endfacet
  facet normal 0 0.707109 0.707104
    outer loop
      vertex -534.198 -195.432 460.85
      vertex -533.37 -193.432 458.85
      vertex -538.402 -195.432 460.85
    endloop
  endfacet
  facet normal 0 0.707109 0.707104
    outer loop
      vertex -533.37 -193.432 458.85
      vertex -539.231 -193.432 458.85
      vertex -538.402 -195.432 460.85
    endloop
  endfacet
  facet normal -0.499996 0.707116 0.499991
    outer loop
      vertex -531.225 -195.432 463.823
      vertex -529.225 -193.432 462.994
      vertex -534.198 -195.432 460.85
    endloop
  endfacet
  facet normal -0.499997 0.707111 0.499997
    outer loop
      vertex -529.225 -193.432 462.994
      vertex -533.37 -193.432 458.85
      vertex -534.198 -195.432 460.85
    endloop
  endfacet
  facet normal 0.499994 0.707115 0.499994
    outer loop
      vertex -543.375 -193.432 462.994
      vertex -541.375 -195.432 463.823
      vertex -539.231 -193.432 458.85
    endloop
  endfacet
  facet normal 0.5 0.707111 0.499995
    outer loop
      vertex -541.375 -195.432 463.823
      vertex -538.402 -195.432 460.85
      vertex -539.231 -193.432 458.85
    endloop
  endfacet
  facet normal -0.707099 0.707115 0
    outer loop
      vertex -531.225 -195.432 468.027
      vertex -529.225 -193.432 468.856
      vertex -531.225 -195.432 463.823
    endloop
  endfacet
  facet normal -0.707099 0.707115 0
    outer loop
      vertex -529.225 -193.432 468.856
      vertex -529.225 -193.432 462.994
      vertex -531.225 -195.432 463.823
    endloop
  endfacet
  facet normal 0.707099 0.707115 0
    outer loop
      vertex -543.375 -193.432 468.856
      vertex -541.375 -195.432 468.027
      vertex -543.375 -193.432 462.994
    endloop
  endfacet
  facet normal 0.707099 0.707115 0
    outer loop
      vertex -541.375 -195.432 468.027
      vertex -541.375 -195.432 463.823
      vertex -543.375 -193.432 462.994
    endloop
  endfacet
  facet normal -0.499997 0.707111 -0.499997
    outer loop
      vertex -534.198 -195.432 471
      vertex -533.37 -193.432 473
      vertex -531.225 -195.432 468.027
    endloop
  endfacet
  facet normal -0.499997 0.707111 -0.499997
    outer loop
      vertex -533.37 -193.432 473
      vertex -529.225 -193.432 468.856
      vertex -531.225 -195.432 468.027
    endloop
  endfacet
  facet normal 0.499997 0.707111 -0.499997
    outer loop
      vertex -539.231 -193.432 473
      vertex -538.402 -195.432 471
      vertex -543.375 -193.432 468.856
    endloop
  endfacet
  facet normal 0.499997 0.707111 -0.499997
    outer loop
      vertex -538.402 -195.432 471
      vertex -541.375 -195.432 468.027
      vertex -543.375 -193.432 468.856
    endloop
  endfacet
  facet normal 0 0.707109 -0.707104
    outer loop
      vertex -538.402 -195.432 471
      vertex -539.231 -193.432 473
      vertex -534.198 -195.432 471
    endloop
  endfacet
  facet normal 0 0.707109 -0.707104
    outer loop
      vertex -539.231 -193.432 473
      vertex -533.37 -193.432 473
      vertex -534.198 -195.432 471
    endloop
  endfacet
  facet normal -0.707086 0.707128 0
    outer loop
      vertex -545.875 -193.432 461.959
      vertex -546.375 -193.932 461.752
      vertex -545.875 -193.432 469.891
    endloop
  endfacet
  facet normal -0.707086 0.707128 0
    outer loop
      vertex -546.375 -193.932 461.752
      vertex -546.375 -193.932 470.098
      vertex -545.875 -193.432 469.891
    endloop
  endfacet
  facet normal -0.499992 0.707118 -0.499992
    outer loop
      vertex -540.266 -193.432 456.35
      vertex -540.474 -193.932 455.85
      vertex -545.875 -193.432 461.959
    endloop
  endfacet
  facet normal -0.499981 0.707132 -0.499983
    outer loop
      vertex -540.474 -193.932 455.85
      vertex -546.375 -193.932 461.752
      vertex -545.875 -193.432 461.959
    endloop
  endfacet
  facet normal -0.499982 0.707133 0.499982
    outer loop
      vertex -540.474 -193.932 476
      vertex -540.266 -193.432 475.5
      vertex -546.375 -193.932 470.098
    endloop
  endfacet
  facet normal -0.499991 0.707117 0.499994
    outer loop
      vertex -540.266 -193.432 475.5
      vertex -545.875 -193.432 469.891
      vertex -546.375 -193.932 470.098
    endloop
  endfacet
  facet normal 0 0.707107 -0.707107
    outer loop
      vertex -532.334 -193.432 456.35
      vertex -532.127 -193.932 455.85
      vertex -540.266 -193.432 456.35
    endloop
  endfacet
  facet normal 0 0.707107 -0.707107
    outer loop
      vertex -532.127 -193.932 455.85
      vertex -540.474 -193.932 455.85
      vertex -540.266 -193.432 456.35
    endloop
  endfacet
  facet normal 0 0.707128 0.707086
    outer loop
      vertex -532.127 -193.932 476
      vertex -532.334 -193.432 475.5
      vertex -540.474 -193.932 476
    endloop
  endfacet
  facet normal 0 0.707128 0.707086
    outer loop
      vertex -532.334 -193.432 475.5
      vertex -540.266 -193.432 475.5
      vertex -540.474 -193.932 476
    endloop
  endfacet
  facet normal 0.500003 0.707103 -0.500003
    outer loop
      vertex -526.725 -193.432 461.959
      vertex -526.225 -193.932 461.752
      vertex -532.334 -193.432 456.35
    endloop
  endfacet
  facet normal 0.499994 0.707117 -0.499991
    outer loop
      vertex -526.225 -193.932 461.752
      vertex -532.127 -193.932 455.85
      vertex -532.334 -193.432 456.35
    endloop
  endfacet
  facet normal 0.500015 0.707089 0.50001
    outer loop
      vertex -526.225 -193.932 470.098
      vertex -526.725 -193.432 469.891
      vertex -532.127 -193.932 476
    endloop
  endfacet
  facet normal 0.49998 0.707133 0.499983
    outer loop
      vertex -526.725 -193.432 469.891
      vertex -532.334 -193.432 475.5
      vertex -532.127 -193.932 476
    endloop
  endfacet
  facet normal 0.707128 0.707086 0
    outer loop
      vertex -526.725 -193.432 469.891
      vertex -526.225 -193.932 470.098
      vertex -526.725 -193.432 461.959
    endloop
  endfacet
  facet normal 0.707128 0.707086 0
    outer loop
      vertex -526.225 -193.932 470.098
      vertex -526.225 -193.932 461.752
      vertex -526.725 -193.432 461.959
    endloop
  endfacet
  facet normal 0 -0.707107 -0.707107
    outer loop
      vertex -532.334 -247.557 437.225
      vertex -532.127 -248.057 437.725
      vertex -540.266 -247.557 437.225
    endloop
  endfacet
  facet normal 0 -0.707107 -0.707107
    outer loop
      vertex -532.127 -248.057 437.725
      vertex -540.474 -248.057 437.725
      vertex -540.266 -247.557 437.225
    endloop
  endfacet
  facet normal -0.499991 0.499993 -0.707118
    outer loop
      vertex -540.474 -227.907 437.725
      vertex -540.266 -228.407 437.225
      vertex -546.375 -233.808 437.725
    endloop
  endfacet
  facet normal -0.499992 0.499993 -0.707118
    outer loop
      vertex -540.266 -228.407 437.225
      vertex -545.875 -234.016 437.225
      vertex -546.375 -233.808 437.725
    endloop
  endfacet
  facet normal 0.500013 -0.500014 -0.707088
    outer loop
      vertex -526.725 -241.948 437.225
      vertex -526.225 -242.155 437.725
      vertex -532.334 -247.557 437.225
    endloop
  endfacet
  facet normal 0.499994 -0.499991 -0.707117
    outer loop
      vertex -526.225 -242.155 437.725
      vertex -532.127 -248.057 437.725
      vertex -532.334 -247.557 437.225
    endloop
  endfacet
  facet normal 0 0.707107 -0.707107
    outer loop
      vertex -532.127 -227.907 437.725
      vertex -532.334 -228.407 437.225
      vertex -540.474 -227.907 437.725
    endloop
  endfacet
  facet normal 0 0.707107 -0.707107
    outer loop
      vertex -532.334 -228.407 437.225
      vertex -540.266 -228.407 437.225
      vertex -540.474 -227.907 437.725
    endloop
  endfacet
  facet normal 0.500015 0.500011 -0.707089
    outer loop
      vertex -526.225 -233.808 437.725
      vertex -526.725 -234.016 437.225
      vertex -532.127 -227.907 437.725
    endloop
  endfacet
  facet normal 0.499991 0.499993 -0.707118
    outer loop
      vertex -526.725 -234.016 437.225
      vertex -532.334 -228.407 437.225
      vertex -532.127 -227.907 437.725
    endloop
  endfacet
  facet normal 0.707128 0 -0.707086
    outer loop
      vertex -526.725 -234.016 437.225
      vertex -526.225 -233.808 437.725
      vertex -526.725 -241.948 437.225
    endloop
  endfacet
  facet normal 0.707128 0 -0.707086
    outer loop
      vertex -526.225 -233.808 437.725
      vertex -526.225 -242.155 437.725
      vertex -526.725 -241.948 437.225
    endloop
  endfacet
  facet normal -0.707086 0 -0.707128
    outer loop
      vertex -546.375 -233.808 437.725
      vertex -545.875 -234.016 437.225
      vertex -546.375 -242.155 437.725
    endloop
  endfacet
  facet normal -0.707086 0 -0.707128
    outer loop
      vertex -545.875 -234.016 437.225
      vertex -545.875 -241.948 437.225
      vertex -546.375 -242.155 437.725
    endloop
  endfacet
  facet normal -0.499992 -0.499993 -0.707118
    outer loop
      vertex -546.375 -242.155 437.725
      vertex -545.875 -241.948 437.225
      vertex -540.474 -248.057 437.725
    endloop
  endfacet
  facet normal -0.499991 -0.499993 -0.707118
    outer loop
      vertex -545.875 -241.948 437.225
      vertex -540.266 -247.557 437.225
      vertex -540.474 -248.057 437.725
    endloop
  endfacet
  facet normal 0.707128 0 0.707086
    outer loop
      vertex -492.25 -242.155 476
      vertex -491.75 -241.948 475.5
      vertex -492.25 -233.808 476
    endloop
  endfacet
  facet normal 0.707128 0 0.707086
    outer loop
      vertex -491.75 -241.948 475.5
      vertex -491.75 -234.016 475.5
      vertex -492.25 -233.808 476
    endloop
  endfacet
  facet normal 0.707118 -0.499991 0.499993
    outer loop
      vertex -491.75 -241.948 475.5
      vertex -492.25 -242.155 476
      vertex -491.75 -247.557 469.891
    endloop
  endfacet
  facet normal 0.707103 -0.500003 0.500002
    outer loop
      vertex -492.25 -242.155 476
      vertex -492.25 -248.057 470.098
      vertex -491.75 -247.557 469.891
    endloop
  endfacet
  facet normal 0.707118 0.499993 0.499992
    outer loop
      vertex -492.25 -233.808 476
      vertex -491.75 -234.016 475.5
      vertex -492.25 -227.907 470.098
    endloop
  endfacet
  facet normal 0.707103 0.500002 0.500004
    outer loop
      vertex -491.75 -234.016 475.5
      vertex -491.75 -228.407 469.891
      vertex -492.25 -227.907 470.098
    endloop
  endfacet
  facet normal 0.707107 -0.707107 0
    outer loop
      vertex -491.75 -247.557 469.891
      vertex -492.25 -248.057 470.098
      vertex -491.75 -247.557 461.959
    endloop
  endfacet
  facet normal 0.707107 -0.707107 0
    outer loop
      vertex -492.25 -248.057 470.098
      vertex -492.25 -248.057 461.752
      vertex -491.75 -247.557 461.959
    endloop
  endfacet
  facet normal 0.707107 0.707107 0
    outer loop
      vertex -492.25 -227.907 470.098
      vertex -491.75 -228.407 469.891
      vertex -492.25 -227.907 461.752
    endloop
  endfacet
  facet normal 0.707107 0.707107 0
    outer loop
      vertex -491.75 -228.407 469.891
      vertex -491.75 -228.407 461.959
      vertex -492.25 -227.907 461.752
    endloop
  endfacet
  facet normal 0.707118 -0.499993 -0.499991
    outer loop
      vertex -491.75 -247.557 461.959
      vertex -492.25 -248.057 461.752
      vertex -491.75 -241.948 456.35
    endloop
  endfacet
  facet normal 0.707103 -0.500002 -0.500003
    outer loop
      vertex -492.25 -248.057 461.752
      vertex -492.25 -242.155 455.85
      vertex -491.75 -241.948 456.35
    endloop
  endfacet
  facet normal 0.707118 0.499992 -0.499993
    outer loop
      vertex -492.25 -227.907 461.752
      vertex -491.75 -228.407 461.959
      vertex -492.25 -233.808 455.85
    endloop
  endfacet
  facet normal 0.707103 0.500004 -0.500002
    outer loop
      vertex -491.75 -228.407 461.959
      vertex -491.75 -234.016 456.35
      vertex -492.25 -233.808 455.85
    endloop
  endfacet
  facet normal 0.707107 0 -0.707107
    outer loop
      vertex -492.25 -233.808 455.85
      vertex -491.75 -234.016 456.35
      vertex -492.25 -242.155 455.85
    endloop
  endfacet
  facet normal 0.707107 0 -0.707107
    outer loop
      vertex -491.75 -234.016 456.35
      vertex -491.75 -241.948 456.35
      vertex -492.25 -242.155 455.85
    endloop
  endfacet
  facet normal 0.707107 0.707107 0
    outer loop
      vertex -493.75 -243.057 468.027
      vertex -491.75 -245.057 468.856
      vertex -493.75 -243.057 463.823
    endloop
  endfacet
  facet normal 0.707107 0.707107 0
    outer loop
      vertex -491.75 -245.057 468.856
      vertex -491.75 -245.057 462.994
      vertex -493.75 -243.057 463.823
    endloop
  endfacet
  facet normal 0.707109 -0.499998 0.5
    outer loop
      vertex -491.75 -230.907 462.994
      vertex -493.75 -232.907 463.823
      vertex -491.75 -235.051 458.85
    endloop
  endfacet
  facet normal 0.707107 -0.5 0.5
    outer loop
      vertex -493.75 -232.907 463.823
      vertex -493.75 -235.879 460.85
      vertex -491.75 -235.051 458.85
    endloop
  endfacet
  facet normal 0.707109 0.499999 0.499999
    outer loop
      vertex -493.75 -243.057 463.823
      vertex -491.75 -245.057 462.994
      vertex -493.75 -240.084 460.85
    endloop
  endfacet
  facet normal 0.707107 0.499999 0.500001
    outer loop
      vertex -491.75 -245.057 462.994
      vertex -491.75 -240.912 458.85
      vertex -493.75 -240.084 460.85
    endloop
  endfacet
  facet normal 0.707107 0 0.707107
    outer loop
      vertex -493.75 -240.084 460.85
      vertex -491.75 -240.912 458.85
      vertex -493.75 -235.879 460.85
    endloop
  endfacet
  facet normal 0.707107 0 0.707107
    outer loop
      vertex -491.75 -240.912 458.85
      vertex -491.75 -235.051 458.85
      vertex -493.75 -235.879 460.85
    endloop
  endfacet
  facet normal -0.707112 0 -0.707102
    outer loop
      vertex -529.125 -240.954 437.225
      vertex -531.125 -240.125 439.225
      vertex -529.125 -235.01 437.225
    endloop
  endfacet
  facet normal -0.707112 0 -0.707102
    outer loop
      vertex -531.125 -240.125 439.225
      vertex -531.125 -235.838 439.225
      vertex -529.125 -235.01 437.225
    endloop
  endfacet
  facet normal -0.500003 0.500001 -0.707104
    outer loop
      vertex -531.125 -240.125 439.225
      vertex -529.125 -240.954 437.225
      vertex -534.157 -243.157 439.225
    endloop
  endfacet
  facet normal -0.500003 0.499996 -0.707108
    outer loop
      vertex -529.125 -240.954 437.225
      vertex -533.328 -245.157 437.225
      vertex -534.157 -243.157 439.225
    endloop
  endfacet
  facet normal -0.500005 -0.499998 -0.707104
    outer loop
      vertex -529.125 -235.01 437.225
      vertex -531.125 -235.838 439.225
      vertex -533.328 -230.807 437.225
    endloop
  endfacet
  facet normal -0.5 -0.499998 -0.707108
    outer loop
      vertex -531.125 -235.838 439.225
      vertex -534.157 -232.807 439.225
      vertex -533.328 -230.807 437.225
    endloop
  endfacet
  facet normal 0 0.707107 -0.707107
    outer loop
      vertex -534.157 -243.157 439.225
      vertex -533.328 -245.157 437.225
      vertex -538.444 -243.157 439.225
    endloop
  endfacet
  facet normal 0 0.707107 -0.707107
    outer loop
      vertex -533.328 -245.157 437.225
      vertex -539.272 -245.157 437.225
      vertex -538.444 -243.157 439.225
    endloop
  endfacet
  facet normal 0 -0.707107 -0.707107
    outer loop
      vertex -533.328 -230.807 437.225
      vertex -534.157 -232.807 439.225
      vertex -539.272 -230.807 437.225
    endloop
  endfacet
  facet normal 0 -0.707107 -0.707107
    outer loop
      vertex -534.157 -232.807 439.225
      vertex -538.444 -232.807 439.225
      vertex -539.272 -230.807 437.225
    endloop
  endfacet
  facet normal 0.5 0.499998 -0.707108
    outer loop
      vertex -538.444 -243.157 439.225
      vertex -539.272 -245.157 437.225
      vertex -541.475 -240.125 439.225
    endloop
  endfacet
  facet normal 0.499997 0.499997 -0.707111
    outer loop
      vertex -539.272 -245.157 437.225
      vertex -543.475 -240.954 437.225
      vertex -541.475 -240.125 439.225
    endloop
  endfacet
  facet normal 0.499999 -0.499999 -0.707109
    outer loop
      vertex -539.272 -230.807 437.225
      vertex -538.444 -232.807 439.225
      vertex -543.475 -235.01 437.225
    endloop
  endfacet
  facet normal 0.499998 -0.499996 -0.707111
    outer loop
      vertex -538.444 -232.807 439.225
      vertex -541.475 -235.838 439.225
      vertex -543.475 -235.01 437.225
    endloop
  endfacet
  facet normal 0.707102 0 -0.707112
    outer loop
      vertex -543.475 -235.01 437.225
      vertex -541.475 -235.838 439.225
      vertex -543.475 -240.954 437.225
    endloop
  endfacet
  facet normal 0.707102 0 -0.707112
    outer loop
      vertex -541.475 -235.838 439.225
      vertex -541.475 -240.125 439.225
      vertex -543.475 -240.954 437.225
    endloop
  endfacet
  facet normal -0.499994 -0.500002 -0.70711
    outer loop
      vertex -534.985 -234.807 468
      vertex -534.157 -232.807 466
      vertex -533.125 -236.667 468
    endloop
  endfacet
  facet normal -0.500003 -0.500001 -0.707104
    outer loop
      vertex -534.157 -232.807 466
      vertex -531.125 -235.838 466
      vertex -533.125 -236.667 468
    endloop
  endfacet
  facet normal 0 -0.707107 -0.707107
    outer loop
      vertex -534.157 -232.807 466
      vertex -534.985 -234.807 468
      vertex -538.444 -232.807 466
    endloop
  endfacet
  facet normal 0 -0.707107 -0.707107
    outer loop
      vertex -534.985 -234.807 468
      vertex -537.615 -234.807 468
      vertex -538.444 -232.807 466
    endloop
  endfacet
  facet normal -0.707112 0 -0.707102
    outer loop
      vertex -533.125 -236.667 468
      vertex -531.125 -235.838 466
      vertex -533.125 -239.297 468
    endloop
  endfacet
  facet normal -0.707112 0 -0.707102
    outer loop
      vertex -531.125 -235.838 466
      vertex -531.125 -240.125 466
      vertex -533.125 -239.297 468
    endloop
  endfacet
  facet normal 0.5 -0.499998 -0.707108
    outer loop
      vertex -538.444 -232.807 466
      vertex -537.615 -234.807 468
      vertex -541.475 -235.838 466
    endloop
  endfacet
  facet normal 0.499999 -0.500007 -0.707102
    outer loop
      vertex -537.615 -234.807 468
      vertex -539.475 -236.667 468
      vertex -541.475 -235.838 466
    endloop
  endfacet
  facet normal -0.499999 0.500007 -0.707102
    outer loop
      vertex -533.125 -239.297 468
      vertex -531.125 -240.125 466
      vertex -534.985 -241.157 468
    endloop
  endfacet
  facet normal -0.5 0.499998 -0.707108
    outer loop
      vertex -531.125 -240.125 466
      vertex -534.157 -243.157 466
      vertex -534.985 -241.157 468
    endloop
  endfacet
  facet normal 0.707112 0 -0.707102
    outer loop
      vertex -541.475 -235.838 466
      vertex -539.475 -236.667 468
      vertex -541.475 -240.125 466
    endloop
  endfacet
  facet normal 0.707112 0 -0.707102
    outer loop
      vertex -539.475 -236.667 468
      vertex -539.475 -239.297 468
      vertex -541.475 -240.125 466
    endloop
  endfacet
  facet normal 0 0.707107 -0.707107
    outer loop
      vertex -534.985 -241.157 468
      vertex -534.157 -243.157 466
      vertex -537.615 -241.157 468
    endloop
  endfacet
  facet normal 0 0.707107 -0.707107
    outer loop
      vertex -534.157 -243.157 466
      vertex -538.444 -243.157 466
      vertex -537.615 -241.157 468
    endloop
  endfacet
  facet normal 0.499994 0.500002 -0.70711
    outer loop
      vertex -537.615 -241.157 468
      vertex -538.444 -243.157 466
      vertex -539.475 -239.297 468
    endloop
  endfacet
  facet normal 0.500003 0.500001 -0.707104
    outer loop
      vertex -538.444 -243.157 466
      vertex -541.475 -240.125 466
      vertex -539.475 -239.297 468
    endloop
  endfacet
  facet normal 0 0.707102 -0.707112
    outer loop
      vertex -537.574 -224.207 469
      vertex -538.402 -222.207 471
      vertex -535.027 -224.207 469
    endloop
  endfacet
  facet normal 0 0.707102 -0.707112
    outer loop
      vertex -538.402 -222.207 471
      vertex -534.198 -222.207 471
      vertex -535.027 -224.207 469
    endloop
  endfacet
  facet normal 0.500001 0.707105 -0.500001
    outer loop
      vertex -538.402 -222.207 471
      vertex -537.574 -224.207 469
      vertex -541.375 -222.207 468.027
    endloop
  endfacet
  facet normal 0.500001 0.707105 -0.500001
    outer loop
      vertex -537.574 -224.207 469
      vertex -539.375 -224.207 467.199
      vertex -541.375 -222.207 468.027
    endloop
  endfacet
  facet normal -0.500001 0.707105 -0.500001
    outer loop
      vertex -535.027 -224.207 469
      vertex -534.198 -222.207 471
      vertex -533.225 -224.207 467.199
    endloop
  endfacet
  facet normal -0.500001 0.707105 -0.500001
    outer loop
      vertex -534.198 -222.207 471
      vertex -531.225 -222.207 468.027
      vertex -533.225 -224.207 467.199
    endloop
  endfacet
  facet normal 0.707112 0.707102 0
    outer loop
      vertex -541.375 -222.207 468.027
      vertex -539.375 -224.207 467.199
      vertex -541.375 -222.207 463.823
    endloop
  endfacet
  facet normal 0.707112 0.707102 0
    outer loop
      vertex -539.375 -224.207 467.199
      vertex -539.375 -224.207 464.651
      vertex -541.375 -222.207 463.823
    endloop
  endfacet
  facet normal -0.707112 0.707102 0
    outer loop
      vertex -533.225 -224.207 467.199
      vertex -531.225 -222.207 468.027
      vertex -533.225 -224.207 464.651
    endloop
  endfacet
  facet normal -0.707112 0.707102 0
    outer loop
      vertex -531.225 -222.207 468.027
      vertex -531.225 -222.207 463.823
      vertex -533.225 -224.207 464.651
    endloop
  endfacet
  facet normal 0.500006 0.707102 0.500001
    outer loop
      vertex -541.375 -222.207 463.823
      vertex -539.375 -224.207 464.651
      vertex -538.402 -222.207 460.85
    endloop
  endfacet
  facet normal 0.499994 0.70711 0.500002
    outer loop
      vertex -539.375 -224.207 464.651
      vertex -537.574 -224.207 462.85
      vertex -538.402 -222.207 460.85
    endloop
  endfacet
  facet normal -0.500001 0.7071 0.500009
    outer loop
      vertex -533.225 -224.207 464.651
      vertex -531.225 -222.207 463.823
      vertex -535.027 -224.207 462.85
    endloop
  endfacet
  facet normal -0.500002 0.707108 0.499997
    outer loop
      vertex -531.225 -222.207 463.823
      vertex -534.198 -222.207 460.85
      vertex -535.027 -224.207 462.85
    endloop
  endfacet
  facet normal 0 0.707107 0.707107
    outer loop
      vertex -535.027 -224.207 462.85
      vertex -534.198 -222.207 460.85
      vertex -537.574 -224.207 462.85
    endloop
  endfacet
  facet normal 0 0.707107 0.707107
    outer loop
      vertex -534.198 -222.207 460.85
      vertex -538.402 -222.207 460.85
      vertex -537.574 -224.207 462.85
    endloop
  endfacet
  facet normal 0.707107 0 -0.707107
    outer loop
      vertex -522.526 -236.708 469
      vertex -520.526 -235.879 471
      vertex -522.526 -239.255 469
    endloop
  endfacet
  facet normal 0.707107 0 -0.707107
    outer loop
      vertex -520.526 -235.879 471
      vertex -520.526 -240.084 471
      vertex -522.526 -239.255 469
    endloop
  endfacet
  facet normal 0.707109 -0.499996 -0.500001
    outer loop
      vertex -520.526 -235.879 471
      vertex -522.526 -236.708 469
      vertex -520.526 -232.907 468.027
    endloop
  endfacet
  facet normal 0.707115 -0.499996 -0.499992
    outer loop
      vertex -522.526 -236.708 469
      vertex -522.526 -234.907 467.199
      vertex -520.526 -232.907 468.027
    endloop
  endfacet
  facet normal 0.707105 0.500005 -0.499997
    outer loop
      vertex -522.526 -239.255 469
      vertex -520.526 -240.084 471
      vertex -522.526 -241.057 467.199
    endloop
  endfacet
  facet normal 0.707113 0.499993 -0.499998
    outer loop
      vertex -520.526 -240.084 471
      vertex -520.526 -243.057 468.027
      vertex -522.526 -241.057 467.199
    endloop
  endfacet
  facet normal 0.707112 -0.707102 0
    outer loop
      vertex -520.526 -232.907 468.027
      vertex -522.526 -234.907 467.199
      vertex -520.526 -232.907 463.823
    endloop
  endfacet
  facet normal 0.707112 -0.707102 0
    outer loop
      vertex -522.526 -234.907 467.199
      vertex -522.526 -234.907 464.651
      vertex -520.526 -232.907 463.823
    endloop
  endfacet
  facet normal 0.707112 0.707102 0
    outer loop
      vertex -522.526 -241.057 467.199
      vertex -520.526 -243.057 468.027
      vertex -522.526 -241.057 464.651
    endloop
  endfacet
  facet normal 0.707112 0.707102 0
    outer loop
      vertex -520.526 -243.057 468.027
      vertex -520.526 -243.057 463.823
      vertex -522.526 -241.057 464.651
    endloop
  endfacet
  facet normal 0.70711 -0.499997 0.499997
    outer loop
      vertex -520.526 -232.907 463.823
      vertex -522.526 -234.907 464.651
      vertex -520.526 -235.879 460.85
    endloop
  endfacet
  facet normal 0.707113 -0.499994 0.499998
    outer loop
      vertex -522.526 -234.907 464.651
      vertex -522.526 -236.708 462.85
      vertex -520.526 -235.879 460.85
    endloop
  endfacet
  facet normal 0.70711 0.499997 0.499997
    outer loop
      vertex -522.526 -241.057 464.651
      vertex -520.526 -243.057 463.823
      vertex -522.526 -239.255 462.85
    endloop
  endfacet
  facet normal 0.70711 0.499997 0.499997
    outer loop
      vertex -520.526 -243.057 463.823
      vertex -520.526 -240.084 460.85
      vertex -522.526 -239.255 462.85
    endloop
  endfacet
  facet normal 0.707112 0 0.707102
    outer loop
      vertex -522.526 -239.255 462.85
      vertex -520.526 -240.084 460.85
      vertex -522.526 -236.708 462.85
    endloop
  endfacet
  facet normal 0.707112 0 0.707102
    outer loop
      vertex -520.526 -240.084 460.85
      vertex -520.526 -235.879 460.85
      vertex -522.526 -236.708 462.85
    endloop
  endfacet
  facet normal 0.707073 0.707141 0
    outer loop
      vertex -517.998 -227.907 470.098
      vertex -517.998 -227.907 461.752
      vertex -518.153 -227.751 461.907
    endloop
  endfacet
  facet normal 0.707073 0.707141 0
    outer loop
      vertex -526.225 -219.679 461.752
      vertex -526.225 -219.679 470.098
      vertex -526.07 -219.835 461.907
    endloop
  endfacet
  facet normal 0.707073 0.707141 0
    outer loop
      vertex -526.225 -219.679 470.098
      vertex -526.07 -219.835 469.943
      vertex -526.07 -219.835 461.907
    endloop
  endfacet
  facet normal 0.707107 0.707106 0
    outer loop
      vertex -526.07 -219.835 461.907
      vertex -526.07 -219.835 469.943
      vertex -518.153 -227.751 461.907
    endloop
  endfacet
  facet normal 0.707107 0.707106 0
    outer loop
      vertex -526.07 -219.835 469.943
      vertex -518.153 -227.751 469.943
      vertex -518.153 -227.751 461.907
    endloop
  endfacet
  facet normal 0.707073 0.707141 0
    outer loop
      vertex -518.153 -227.751 461.907
      vertex -518.153 -227.751 469.943
      vertex -517.998 -227.907 470.098
    endloop
  endfacet
  facet normal 0.408249 0.408249 -0.816496
    outer loop
      vertex -518.153 -227.751 461.907
      vertex -524.21 -233.808 455.85
      vertex -526.07 -219.835 461.907
    endloop
  endfacet
  facet normal 0.408249 0.408249 -0.816496
    outer loop
      vertex -524.21 -233.808 455.85
      vertex -532.127 -225.892 455.85
      vertex -526.07 -219.835 461.907
    endloop
  endfacet
  facet normal 0.408249 0.408249 0.816496
    outer loop
      vertex -532.127 -225.892 476
      vertex -524.21 -233.808 476
      vertex -526.07 -219.835 469.943
    endloop
  endfacet
  facet normal 0.408249 0.408249 0.816496
    outer loop
      vertex -524.21 -233.808 476
      vertex -518.153 -227.751 469.943
      vertex -526.07 -219.835 469.943
    endloop
  endfacet
  facet normal -0.579227 -0.579229 0.573576
    outer loop
      vertex -540.474 -235.365 476
      vertex -546.375 -235.307 470.098
      vertex -533.684 -242.155 476
    endloop
  endfacet
  facet normal -0.579227 -0.579229 0.573576
    outer loop
      vertex -546.375 -235.307 470.098
      vertex -546.375 -242.155 463.183
      vertex -533.684 -242.155 476
    endloop
  endfacet
  facet normal -0.579228 -0.579229 0.573576
    outer loop
      vertex -533.684 -242.155 476
      vertex -546.375 -242.155 463.183
      vertex -533.626 -248.057 470.098
    endloop
  endfacet
  facet normal -0.579228 -0.579229 0.573576
    outer loop
      vertex -546.375 -242.155 463.183
      vertex -540.474 -248.057 463.183
      vertex -533.626 -248.057 470.098
    endloop
  endfacet
  facet normal -0.707105 0 -0.707109
    outer loop
      vertex -540.474 -193.932 455.85
      vertex -540.474 -227.907 455.85
      vertex -546.375 -193.932 461.752
    endloop
  endfacet
  facet normal -0.707105 0 -0.707109
    outer loop
      vertex -540.474 -227.907 455.85
      vertex -546.375 -233.808 461.752
      vertex -546.375 -193.932 461.752
    endloop
  endfacet
  facet normal 0 0 -1
    outer loop
      vertex -524.21 -233.808 455.85
      vertex -492.25 -233.808 455.85
      vertex -492.25 -242.155 455.85
    endloop
  endfacet
  facet normal 0 0 -1
    outer loop
      vertex -532.127 -193.932 455.85
      vertex -532.127 -225.892 455.85
      vertex -540.474 -193.932 455.85
    endloop
  endfacet
  facet normal 0 0 -1
    outer loop
      vertex -532.127 -225.892 455.85
      vertex -540.474 -227.907 455.85
      vertex -540.474 -193.932 455.85
    endloop
  endfacet
  facet normal 0 0 -1
    outer loop
      vertex -492.25 -242.155 455.85
      vertex -526.225 -242.155 455.85
      vertex -524.21 -233.808 455.85
    endloop
  endfacet
  facet normal 0 0 -1
    outer loop
      vertex -526.225 -242.155 455.85
      vertex -526.225 -233.808 455.85
      vertex -524.21 -233.808 455.85
    endloop
  endfacet
  facet normal 0 0 -1
    outer loop
      vertex -524.21 -233.808 455.85
      vertex -526.225 -233.808 455.85
      vertex -532.127 -225.892 455.85
    endloop
  endfacet
  facet normal 0 0 -1
    outer loop
      vertex -526.225 -233.808 455.85
      vertex -532.127 -227.907 455.85
      vertex -532.127 -225.892 455.85
    endloop
  endfacet
  facet normal 0 0 -1
    outer loop
      vertex -532.127 -225.892 455.85
      vertex -532.127 -227.907 455.85
      vertex -540.474 -227.907 455.85
    endloop
  endfacet
endsolid Mesh
