solid Mesh
  facet normal 0.707106 -0.707107 0
    outer loop
      vertex 2.07107 -242.982 466
      vertex 2.07107 -242.982 259.549
      vertex 5 -240.053 466
    endloop
  endfacet
  facet normal 0.707106 -0.707107 0
    outer loop
      vertex 2.07107 -242.982 259.549
      vertex 5 -240.053 259.549
      vertex 5 -240.053 466
    endloop
  endfacet
  facet normal 0 -1 0
    outer loop
      vertex -2.07107 -242.982 466
      vertex -2.07107 -242.982 259.549
      vertex 2.07107 -242.982 466
    endloop
  endfacet
  facet normal 0 -1 0
    outer loop
      vertex -2.07107 -242.982 259.549
      vertex 2.07107 -242.982 259.549
      vertex 2.07107 -242.982 466
    endloop
  endfacet
  facet normal -0.707106 -0.707107 0
    outer loop
      vertex -5 -240.053 466
      vertex -5 -240.053 259.549
      vertex -2.07107 -242.982 466
    endloop
  endfacet
  facet normal -0.707106 -0.707107 0
    outer loop
      vertex -5 -240.053 259.549
      vertex -2.07107 -242.982 259.549
      vertex -2.07107 -242.982 466
    endloop
  endfacet
  facet normal -1 0 0
    outer loop
      vertex -5 -235.911 466
      vertex -5 -235.911 259.549
      vertex -5 -240.053 466
    endloop
  endfacet
  facet normal -1 0 0
    outer loop
      vertex -5 -235.911 259.549
      vertex -5 -240.053 259.549
      vertex -5 -240.053 466
    endloop
  endfacet
  facet normal -0.707108 0.707106 0
    outer loop
      vertex -2.07107 -232.982 466
      vertex -2.07107 -232.982 259.549
      vertex -5 -235.911 466
    endloop
  endfacet
  facet normal -0.707108 0.707106 0
    outer loop
      vertex -2.07107 -232.982 259.549
      vertex -5 -235.911 259.549
      vertex -5 -235.911 466
    endloop
  endfacet
  facet normal 0 1 0
    outer loop
      vertex 2.07107 -232.982 466
      vertex 2.07107 -232.982 259.549
      vertex -2.07107 -232.982 466
    endloop
  endfacet
  facet normal 0 1 0
    outer loop
      vertex 2.07107 -232.982 259.549
      vertex -2.07107 -232.982 259.549
      vertex -2.07107 -232.982 466
    endloop
  endfacet
  facet normal 0.707108 0.707106 0
    outer loop
      vertex 5 -235.911 466
      vertex 5 -235.911 259.549
      vertex 2.07107 -232.982 466
    endloop
  endfacet
  facet normal 0.707108 0.707106 0
    outer loop
      vertex 5 -235.911 259.549
      vertex 2.07107 -232.982 259.549
      vertex 2.07107 -232.982 466
    endloop
  endfacet
  facet normal 1 0 0
    outer loop
      vertex 5 -240.053 466
      vertex 5 -240.053 259.549
      vertex 5 -235.911 466
    endloop
  endfacet
  facet normal 1 0 0
    outer loop
      vertex 5 -240.053 259.549
      vertex 5 -235.911 259.549
      vertex 5 -235.911 466
    endloop
  endfacet
  facet normal 0 0 -1
    outer loop
      vertex -3 -236.739 257.549
      vertex -1.24264 -234.982 257.549
      vertex -3 -239.224 257.549
    endloop
  endfacet
  facet normal 0 0 -1
    outer loop
      vertex -1.24264 -234.982 257.549
      vertex 1.24264 -234.982 257.549
      vertex -3 -239.224 257.549
    endloop
  endfacet
  facet normal 0 0 -1
    outer loop
      vertex -3 -239.224 257.549
      vertex 1.24264 -234.982 257.549
      vertex -1.24264 -240.982 257.549
    endloop
  endfacet
  facet normal 0 0 -1
    outer loop
      vertex 3 -236.739 257.549
      vertex 3 -239.224 257.549
      vertex 1.24264 -234.982 257.549
    endloop
  endfacet
  facet normal 0 0 -1
    outer loop
      vertex 3 -239.224 257.549
      vertex 1.24264 -240.982 257.549
      vertex 1.24264 -234.982 257.549
    endloop
  endfacet
  facet normal 0 0 -1
    outer loop
      vertex 1.24264 -234.982 257.549
      vertex 1.24264 -240.982 257.549
      vertex -1.24264 -240.982 257.549
    endloop
  endfacet
  facet normal 0 0.707107 -0.707107
    outer loop
      vertex 2.07107 -232.982 259.549
      vertex 1.24264 -234.982 257.549
      vertex -2.07107 -232.982 259.549
    endloop
  endfacet
  facet normal 0 0.707107 -0.707107
    outer loop
      vertex 1.24264 -234.982 257.549
      vertex -1.24264 -234.982 257.549
      vertex -2.07107 -232.982 259.549
    endloop
  endfacet
  facet normal -0.5 -0.5 0.707107
    outer loop
      vertex -2.07107 -242.982 466
      vertex -1.24264 -240.982 468
      vertex -5 -240.053 466
    endloop
  endfacet
  facet normal -0.5 -0.500001 0.707106
    outer loop
      vertex -1.24264 -240.982 468
      vertex -3 -239.224 468
      vertex -5 -240.053 466
    endloop
  endfacet
  facet normal -0.707108 0 0.707106
    outer loop
      vertex -5 -240.053 466
      vertex -3 -239.224 468
      vertex -5 -235.911 466
    endloop
  endfacet
  facet normal -0.707108 0 0.707106
    outer loop
      vertex -3 -239.224 468
      vertex -3 -236.739 468
      vertex -5 -235.911 466
    endloop
  endfacet
  facet normal -0.500002 0.5 0.707105
    outer loop
      vertex -5 -235.911 466
      vertex -3 -236.739 468
      vertex -2.07107 -232.982 466
    endloop
  endfacet
  facet normal -0.499999 0.500001 0.707107
    outer loop
      vertex -3 -236.739 468
      vertex -1.24264 -234.982 468
      vertex -2.07107 -232.982 466
    endloop
  endfacet
  facet normal 0 0.707107 0.707107
    outer loop
      vertex 1.24264 -234.982 468
      vertex 2.07107 -232.982 466
      vertex -1.24264 -234.982 468
    endloop
  endfacet
  facet normal 0 0.707107 0.707107
    outer loop
      vertex 2.07107 -232.982 466
      vertex -2.07107 -232.982 466
      vertex -1.24264 -234.982 468
    endloop
  endfacet
  facet normal 0.707108 0 0.707106
    outer loop
      vertex 3 -239.224 468
      vertex 5 -240.053 466
      vertex 3 -236.739 468
    endloop
  endfacet
  facet normal 0.707108 0 0.707106
    outer loop
      vertex 5 -240.053 466
      vertex 5 -235.911 466
      vertex 3 -236.739 468
    endloop
  endfacet
  facet normal 0.500001 0.500003 0.707104
    outer loop
      vertex 3 -236.739 468
      vertex 5 -235.911 466
      vertex 1.24264 -234.982 468
    endloop
  endfacet
  facet normal 0.500001 0.499999 0.707106
    outer loop
      vertex 5 -235.911 466
      vertex 2.07107 -232.982 466
      vertex 1.24264 -234.982 468
    endloop
  endfacet
  facet normal 0 -0.707107 0.707107
    outer loop
      vertex -1.24264 -240.982 468
      vertex -2.07107 -242.982 466
      vertex 1.24264 -240.982 468
    endloop
  endfacet
  facet normal 0 -0.707107 0.707107
    outer loop
      vertex -2.07107 -242.982 466
      vertex 2.07107 -242.982 466
      vertex 1.24264 -240.982 468
    endloop
  endfacet
  facet normal 0.499999 -0.500001 0.707107
    outer loop
      vertex 1.24264 -240.982 468
      vertex 2.07107 -242.982 466
      vertex 3 -239.224 468
    endloop
  endfacet
  facet normal 0.5 -0.500001 0.707106
    outer loop
      vertex 2.07107 -242.982 466
      vertex 5 -240.053 466
      vertex 3 -239.224 468
    endloop
  endfacet
  facet normal 0 0 1
    outer loop
      vertex -3 -239.224 468
      vertex -1.24264 -240.982 468
      vertex 3 -236.739 468
    endloop
  endfacet
  facet normal 0 0 1
    outer loop
      vertex -1.24264 -240.982 468
      vertex 1.24264 -240.982 468
      vertex 3 -236.739 468
    endloop
  endfacet
  facet normal 0 0 1
    outer loop
      vertex 3 -236.739 468
      vertex 1.24264 -240.982 468
      vertex 3 -239.224 468
    endloop
  endfacet
  facet normal 0 0 1
    outer loop
      vertex 1.24264 -234.982 468
      vertex -1.24264 -234.982 468
      vertex 3 -236.739 468
    endloop
  endfacet
  facet normal 0 0 1
    outer loop
      vertex -1.24264 -234.982 468
      vertex -3 -236.739 468
      vertex 3 -236.739 468
    endloop
  endfacet
  facet normal 0 0 1
    outer loop
      vertex 3 -236.739 468
      vertex -3 -236.739 468
      vertex -3 -239.224 468
    endloop
  endfacet
  facet normal 0 -0.707107 -0.707107
    outer loop
      vertex -2.07107 -242.982 259.549
      vertex -1.24264 -240.982 257.549
      vertex 2.07107 -242.982 259.549
    endloop
  endfacet
  facet normal 0 -0.707107 -0.707107
    outer loop
      vertex -1.24264 -240.982 257.549
      vertex 1.24264 -240.982 257.549
      vertex 2.07107 -242.982 259.549
    endloop
  endfacet
  facet normal -0.499999 -0.500001 -0.707107
    outer loop
      vertex -1.24264 -240.982 257.549
      vertex -2.07107 -242.982 259.549
      vertex -3 -239.224 257.549
    endloop
  endfacet
  facet normal -0.5 -0.500001 -0.707106
    outer loop
      vertex -2.07107 -242.982 259.549
      vertex -5 -240.053 259.549
      vertex -3 -239.224 257.549
    endloop
  endfacet
  facet normal 0.5 -0.5 -0.707107
    outer loop
      vertex 2.07107 -242.982 259.549
      vertex 1.24264 -240.982 257.549
      vertex 5 -240.053 259.549
    endloop
  endfacet
  facet normal 0.5 -0.500001 -0.707106
    outer loop
      vertex 1.24264 -240.982 257.549
      vertex 3 -239.224 257.549
      vertex 5 -240.053 259.549
    endloop
  endfacet
  facet normal -0.707108 0 -0.707106
    outer loop
      vertex -3 -239.224 257.549
      vertex -5 -240.053 259.549
      vertex -3 -236.739 257.549
    endloop
  endfacet
  facet normal -0.707108 0 -0.707106
    outer loop
      vertex -5 -240.053 259.549
      vertex -5 -235.911 259.549
      vertex -3 -236.739 257.549
    endloop
  endfacet
  facet normal 0.707108 0 -0.707106
    outer loop
      vertex 5 -240.053 259.549
      vertex 3 -239.224 257.549
      vertex 5 -235.911 259.549
    endloop
  endfacet
  facet normal 0.707108 0 -0.707106
    outer loop
      vertex 3 -239.224 257.549
      vertex 3 -236.739 257.549
      vertex 5 -235.911 259.549
    endloop
  endfacet
  facet normal -0.500001 0.500003 -0.707104
    outer loop
      vertex -3 -236.739 257.549
      vertex -5 -235.911 259.549
      vertex -1.24264 -234.982 257.549
    endloop
  endfacet
  facet normal -0.500001 0.499999 -0.707106
    outer loop
      vertex -5 -235.911 259.549
      vertex -2.07107 -232.982 259.549
      vertex -1.24264 -234.982 257.549
    endloop
  endfacet
  facet normal 0.500002 0.5 -0.707105
    outer loop
      vertex 5 -235.911 259.549
      vertex 3 -236.739 257.549
      vertex 2.07107 -232.982 259.549
    endloop
  endfacet
  facet normal 0.499999 0.500001 -0.707107
    outer loop
      vertex 3 -236.739 257.549
      vertex 1.24264 -234.982 257.549
      vertex 2.07107 -232.982 259.549
    endloop
  endfacet
endsolid Mesh
