solid Mesh
  facet normal -0.707108 0 0.707106
    outer loop
      vertex -2.07107 -222.207 470.925
      vertex -2.07107 -15.7562 470.925
      vertex -5 -222.207 467.996
    endloop
  endfacet
  facet normal -0.707108 0 0.707106
    outer loop
      vertex -2.07107 -15.7562 470.925
      vertex -5 -15.7562 467.996
      vertex -5 -222.207 467.996
    endloop
  endfacet
  facet normal 0 0 1
    outer loop
      vertex 2.07107 -222.207 470.925
      vertex 2.07107 -15.7562 470.925
      vertex -2.07107 -222.207 470.925
    endloop
  endfacet
  facet normal 0 0 1
    outer loop
      vertex 2.07107 -15.7562 470.925
      vertex -2.07107 -15.7562 470.925
      vertex -2.07107 -222.207 470.925
    endloop
  endfacet
  facet normal 0.707108 0 0.707106
    outer loop
      vertex 5 -222.207 467.996
      vertex 5 -15.7562 467.996
      vertex 2.07107 -222.207 470.925
    endloop
  endfacet
  facet normal 0.707108 0 0.707106
    outer loop
      vertex 5 -15.7562 467.996
      vertex 2.07107 -15.7562 470.925
      vertex 2.07107 -222.207 470.925
    endloop
  endfacet
  facet normal 1 0 0
    outer loop
      vertex 5 -222.207 463.854
      vertex 5 -15.7562 463.854
      vertex 5 -222.207 467.996
    endloop
  endfacet
  facet normal 1 0 0
    outer loop
      vertex 5 -15.7562 463.854
      vertex 5 -15.7562 467.996
      vertex 5 -222.207 467.996
    endloop
  endfacet
  facet normal 0.707104 0 -0.707109
    outer loop
      vertex 2.07107 -222.207 460.925
      vertex 2.07107 -15.7562 460.925
      vertex 5 -222.207 463.854
    endloop
  endfacet
  facet normal 0.707104 0 -0.707109
    outer loop
      vertex 2.07107 -15.7562 460.925
      vertex 5 -15.7562 463.854
      vertex 5 -222.207 463.854
    endloop
  endfacet
  facet normal 0 0 -1
    outer loop
      vertex -2.07107 -222.207 460.925
      vertex -2.07107 -15.7562 460.925
      vertex 2.07107 -222.207 460.925
    endloop
  endfacet
  facet normal 0 0 -1
    outer loop
      vertex -2.07107 -15.7562 460.925
      vertex 2.07107 -15.7562 460.925
      vertex 2.07107 -222.207 460.925
    endloop
  endfacet
  facet normal -0.707104 0 -0.707109
    outer loop
      vertex -5 -222.207 463.854
      vertex -5 -15.7562 463.854
      vertex -2.07107 -222.207 460.925
    endloop
  endfacet
  facet normal -0.707104 0 -0.707109
    outer loop
      vertex -5 -15.7562 463.854
      vertex -2.07107 -15.7562 460.925
      vertex -2.07107 -222.207 460.925
    endloop
  endfacet
  facet normal -1 0 0
    outer loop
      vertex -5 -222.207 467.996
      vertex -5 -15.7562 467.996
      vertex -5 -222.207 463.854
    endloop
  endfacet
  facet normal -1 0 0
    outer loop
      vertex -5 -15.7562 467.996
      vertex -5 -15.7562 463.854
      vertex -5 -222.207 463.854
    endloop
  endfacet
  facet normal 0 1 0
    outer loop
      vertex 1.24264 -13.7562 468.925
      vertex 3 -13.7562 467.168
      vertex 3 -13.7562 464.682
    endloop
  endfacet
  facet normal 0 1 0
    outer loop
      vertex -1.24264 -13.7562 462.925
      vertex -3 -13.7562 464.682
      vertex -3 -13.7562 467.168
    endloop
  endfacet
  facet normal 0 1 0
    outer loop
      vertex 3 -13.7562 464.682
      vertex 1.24264 -13.7562 462.925
      vertex 1.24264 -13.7562 468.925
    endloop
  endfacet
  facet normal 0 1 0
    outer loop
      vertex 1.24264 -13.7562 462.925
      vertex -1.24264 -13.7562 462.925
      vertex 1.24264 -13.7562 468.925
    endloop
  endfacet
  facet normal 0 1 0
    outer loop
      vertex 1.24264 -13.7562 468.925
      vertex -1.24264 -13.7562 462.925
      vertex -1.24264 -13.7562 468.925
    endloop
  endfacet
  facet normal 0 1 0
    outer loop
      vertex -1.24264 -13.7562 462.925
      vertex -3 -13.7562 467.168
      vertex -1.24264 -13.7562 468.925
    endloop
  endfacet
  facet normal 0 0.707102 -0.707111
    outer loop
      vertex -2.07107 -15.7562 460.925
      vertex -1.24264 -13.7562 462.925
      vertex 2.07107 -15.7562 460.925
    endloop
  endfacet
  facet normal 0 0.707102 -0.707111
    outer loop
      vertex -1.24264 -13.7562 462.925
      vertex 1.24264 -13.7562 462.925
      vertex 2.07107 -15.7562 460.925
    endloop
  endfacet
  facet normal 0.500001 -0.707106 0.499999
    outer loop
      vertex 2.07107 -222.207 470.925
      vertex 1.24264 -224.207 468.925
      vertex 5 -222.207 467.996
    endloop
  endfacet
  facet normal 0.500001 -0.707104 0.500003
    outer loop
      vertex 1.24264 -224.207 468.925
      vertex 3 -224.207 467.168
      vertex 5 -222.207 467.996
    endloop
  endfacet
  facet normal 0.707108 -0.707106 0
    outer loop
      vertex 5 -222.207 467.996
      vertex 3 -224.207 467.168
      vertex 5 -222.207 463.854
    endloop
  endfacet
  facet normal 0.707108 -0.707106 0
    outer loop
      vertex 3 -224.207 467.168
      vertex 3 -224.207 464.682
      vertex 5 -222.207 463.854
    endloop
  endfacet
  facet normal 0.499998 -0.707108 -0.500001
    outer loop
      vertex 5 -222.207 463.854
      vertex 3 -224.207 464.682
      vertex 2.07107 -222.207 460.925
    endloop
  endfacet
  facet normal 0.500007 -0.707102 -0.5
    outer loop
      vertex 3 -224.207 464.682
      vertex 1.24264 -224.207 462.925
      vertex 2.07107 -222.207 460.925
    endloop
  endfacet
  facet normal 0 -0.707102 -0.707112
    outer loop
      vertex -1.24264 -224.207 462.925
      vertex -2.07107 -222.207 460.925
      vertex 1.24264 -224.207 462.925
    endloop
  endfacet
  facet normal 0 -0.707102 -0.707112
    outer loop
      vertex -2.07107 -222.207 460.925
      vertex 2.07107 -222.207 460.925
      vertex 1.24264 -224.207 462.925
    endloop
  endfacet
  facet normal -0.707108 -0.707106 0
    outer loop
      vertex -3 -224.207 467.168
      vertex -5 -222.207 467.996
      vertex -3 -224.207 464.682
    endloop
  endfacet
  facet normal -0.707108 -0.707106 0
    outer loop
      vertex -5 -222.207 467.996
      vertex -5 -222.207 463.854
      vertex -3 -224.207 464.682
    endloop
  endfacet
  facet normal -0.500002 -0.707109 -0.499995
    outer loop
      vertex -3 -224.207 464.682
      vertex -5 -222.207 463.854
      vertex -1.24264 -224.207 462.925
    endloop
  endfacet
  facet normal -0.500001 -0.707103 -0.500004
    outer loop
      vertex -5 -222.207 463.854
      vertex -2.07107 -222.207 460.925
      vertex -1.24264 -224.207 462.925
    endloop
  endfacet
  facet normal 0 -0.707107 0.707107
    outer loop
      vertex 1.24264 -224.207 468.925
      vertex 2.07107 -222.207 470.925
      vertex -1.24264 -224.207 468.925
    endloop
  endfacet
  facet normal 0 -0.707107 0.707107
    outer loop
      vertex 2.07107 -222.207 470.925
      vertex -2.07107 -222.207 470.925
      vertex -1.24264 -224.207 468.925
    endloop
  endfacet
  facet normal -0.499999 -0.707107 0.500001
    outer loop
      vertex -1.24264 -224.207 468.925
      vertex -2.07107 -222.207 470.925
      vertex -3 -224.207 467.168
    endloop
  endfacet
  facet normal -0.500002 -0.707105 0.5
    outer loop
      vertex -2.07107 -222.207 470.925
      vertex -5 -222.207 467.996
      vertex -3 -224.207 467.168
    endloop
  endfacet
  facet normal 0 -1 0
    outer loop
      vertex 1.24264 -224.207 468.925
      vertex -1.24264 -224.207 468.925
      vertex -3 -224.207 467.168
    endloop
  endfacet
  facet normal 0 -1 0
    outer loop
      vertex -1.24264 -224.207 462.925
      vertex 1.24264 -224.207 462.925
      vertex -3 -224.207 464.682
    endloop
  endfacet
  facet normal 0 -1 0
    outer loop
      vertex 1.24264 -224.207 462.925
      vertex 3 -224.207 464.682
      vertex -3 -224.207 464.682
    endloop
  endfacet
  facet normal 0 -1 0
    outer loop
      vertex -3 -224.207 464.682
      vertex 3 -224.207 464.682
      vertex -3 -224.207 467.168
    endloop
  endfacet
  facet normal 0 -1 0
    outer loop
      vertex 3 -224.207 464.682
      vertex 3 -224.207 467.168
      vertex -3 -224.207 467.168
    endloop
  endfacet
  facet normal 0 -1 0
    outer loop
      vertex -3 -224.207 467.168
      vertex 3 -224.207 467.168
      vertex 1.24264 -224.207 468.925
    endloop
  endfacet
  facet normal 0 0.707107 0.707106
    outer loop
      vertex 2.07107 -15.7562 470.925
      vertex 1.24264 -13.7562 468.925
      vertex -2.07107 -15.7562 470.925
    endloop
  endfacet
  facet normal 0 0.707107 0.707106
    outer loop
      vertex 1.24264 -13.7562 468.925
      vertex -1.24264 -13.7562 468.925
      vertex -2.07107 -15.7562 470.925
    endloop
  endfacet
  facet normal 0.499999 0.707107 0.5
    outer loop
      vertex 1.24264 -13.7562 468.925
      vertex 2.07107 -15.7562 470.925
      vertex 3 -13.7562 467.168
    endloop
  endfacet
  facet normal 0.500002 0.707105 0.5
    outer loop
      vertex 2.07107 -15.7562 470.925
      vertex 5 -15.7562 467.996
      vertex 3 -13.7562 467.168
    endloop
  endfacet
  facet normal -0.500001 0.707107 0.499999
    outer loop
      vertex -2.07107 -15.7562 470.925
      vertex -1.24264 -13.7562 468.925
      vertex -5 -15.7562 467.996
    endloop
  endfacet
  facet normal -0.5 0.707105 0.500002
    outer loop
      vertex -1.24264 -13.7562 468.925
      vertex -3 -13.7562 467.168
      vertex -5 -15.7562 467.996
    endloop
  endfacet
  facet normal 0.707107 0.707107 0
    outer loop
      vertex 3 -13.7562 467.168
      vertex 5 -15.7562 467.996
      vertex 3 -13.7562 464.682
    endloop
  endfacet
  facet normal 0.707107 0.707107 0
    outer loop
      vertex 5 -15.7562 467.996
      vertex 5 -15.7562 463.854
      vertex 3 -13.7562 464.682
    endloop
  endfacet
  facet normal -0.707107 0.707107 0
    outer loop
      vertex -5 -15.7562 467.996
      vertex -3 -13.7562 467.168
      vertex -5 -15.7562 463.854
    endloop
  endfacet
  facet normal -0.707107 0.707107 0
    outer loop
      vertex -3 -13.7562 467.168
      vertex -3 -13.7562 464.682
      vertex -5 -15.7562 463.854
    endloop
  endfacet
  facet normal 0.500001 0.70711 -0.499994
    outer loop
      vertex 3 -13.7562 464.682
      vertex 5 -15.7562 463.854
      vertex 1.24264 -13.7562 462.925
    endloop
  endfacet
  facet normal 0.5 0.707104 -0.500004
    outer loop
      vertex 5 -15.7562 463.854
      vertex 2.07107 -15.7562 460.925
      vertex 1.24264 -13.7562 462.925
    endloop
  endfacet
  facet normal -0.499997 0.707108 -0.5
    outer loop
      vertex -5 -15.7562 463.854
      vertex -3 -13.7562 464.682
      vertex -2.07107 -15.7562 460.925
    endloop
  endfacet
  facet normal -0.500006 0.707103 -0.5
    outer loop
      vertex -3 -13.7562 464.682
      vertex -1.24264 -13.7562 462.925
      vertex -2.07107 -15.7562 460.925
    endloop
  endfacet
endsolid Mesh
