solid Mesh
  facet normal -0.707105 0 -0.707109
    outer loop
      vertex -240.071 -15.7562 460.925
      vertex -240.071 -222.207 460.925
      vertex -243 -15.7562 463.854
    endloop
  endfacet
  facet normal -0.707105 0 -0.707109
    outer loop
      vertex -240.071 -222.207 460.925
      vertex -243 -222.207 463.854
      vertex -243 -15.7562 463.854
    endloop
  endfacet
  facet normal 0 0 -1
    outer loop
      vertex -235.929 -15.7562 460.925
      vertex -235.929 -222.207 460.925
      vertex -240.071 -15.7562 460.925
    endloop
  endfacet
  facet normal 0 0 -1
    outer loop
      vertex -235.929 -222.207 460.925
      vertex -240.071 -222.207 460.925
      vertex -240.071 -15.7562 460.925
    endloop
  endfacet
  facet normal 0.707103 0 -0.70711
    outer loop
      vertex -233 -15.7562 463.854
      vertex -233 -222.207 463.854
      vertex -235.929 -15.7562 460.925
    endloop
  endfacet
  facet normal 0.707103 0 -0.70711
    outer loop
      vertex -233 -222.207 463.854
      vertex -235.929 -222.207 460.925
      vertex -235.929 -15.7562 460.925
    endloop
  endfacet
  facet normal 1 0 0
    outer loop
      vertex -233 -15.7562 467.996
      vertex -233 -222.207 467.996
      vertex -233 -15.7562 463.854
    endloop
  endfacet
  facet normal 1 0 0
    outer loop
      vertex -233 -222.207 467.996
      vertex -233 -222.207 463.854
      vertex -233 -15.7562 463.854
    endloop
  endfacet
  facet normal 0.707107 0 0.707107
    outer loop
      vertex -235.929 -15.7562 470.925
      vertex -235.929 -222.207 470.925
      vertex -233 -15.7562 467.996
    endloop
  endfacet
  facet normal 0.707107 0 0.707107
    outer loop
      vertex -235.929 -222.207 470.925
      vertex -233 -222.207 467.996
      vertex -233 -15.7562 467.996
    endloop
  endfacet
  facet normal 0 0 1
    outer loop
      vertex -240.071 -15.7562 470.925
      vertex -240.071 -222.207 470.925
      vertex -235.929 -15.7562 470.925
    endloop
  endfacet
  facet normal 0 0 1
    outer loop
      vertex -240.071 -222.207 470.925
      vertex -235.929 -222.207 470.925
      vertex -235.929 -15.7562 470.925
    endloop
  endfacet
  facet normal -0.707109 0 0.707105
    outer loop
      vertex -243 -15.7562 467.996
      vertex -243 -222.207 467.996
      vertex -240.071 -15.7562 470.925
    endloop
  endfacet
  facet normal -0.707109 0 0.707105
    outer loop
      vertex -243 -222.207 467.996
      vertex -240.071 -222.207 470.925
      vertex -240.071 -15.7562 470.925
    endloop
  endfacet
  facet normal -1 0 0
    outer loop
      vertex -243 -15.7562 463.854
      vertex -243 -222.207 463.854
      vertex -243 -15.7562 467.996
    endloop
  endfacet
  facet normal -1 0 0
    outer loop
      vertex -243 -222.207 463.854
      vertex -243 -222.207 467.996
      vertex -243 -15.7562 467.996
    endloop
  endfacet
  facet normal 0 -1 0
    outer loop
      vertex -235 -224.207 467.168
      vertex -236.757 -224.207 468.925
      vertex -235 -224.207 464.682
    endloop
  endfacet
  facet normal 0 -1 0
    outer loop
      vertex -236.757 -224.207 468.925
      vertex -239.243 -224.207 468.925
      vertex -235 -224.207 464.682
    endloop
  endfacet
  facet normal 0 -1 0
    outer loop
      vertex -235 -224.207 464.682
      vertex -239.243 -224.207 468.925
      vertex -236.757 -224.207 462.925
    endloop
  endfacet
  facet normal 0 -1 0
    outer loop
      vertex -241 -224.207 467.168
      vertex -241 -224.207 464.682
      vertex -239.243 -224.207 468.925
    endloop
  endfacet
  facet normal 0 -1 0
    outer loop
      vertex -241 -224.207 464.682
      vertex -239.243 -224.207 462.925
      vertex -239.243 -224.207 468.925
    endloop
  endfacet
  facet normal 0 -1 0
    outer loop
      vertex -239.243 -224.207 468.925
      vertex -239.243 -224.207 462.925
      vertex -236.757 -224.207 462.925
    endloop
  endfacet
  facet normal 0 -0.707107 0.707107
    outer loop
      vertex -240.071 -222.207 470.925
      vertex -239.243 -224.207 468.925
      vertex -235.929 -222.207 470.925
    endloop
  endfacet
  facet normal 0 -0.707107 0.707107
    outer loop
      vertex -239.243 -224.207 468.925
      vertex -236.757 -224.207 468.925
      vertex -235.929 -222.207 470.925
    endloop
  endfacet
  facet normal 0.499999 0.707105 -0.500004
    outer loop
      vertex -235.929 -15.7562 460.925
      vertex -236.757 -13.7562 462.925
      vertex -233 -15.7562 463.854
    endloop
  endfacet
  facet normal 0.5 0.70711 -0.499996
    outer loop
      vertex -236.757 -13.7562 462.925
      vertex -235 -13.7562 464.682
      vertex -233 -15.7562 463.854
    endloop
  endfacet
  facet normal 0.707106 0.707107 0
    outer loop
      vertex -233 -15.7562 463.854
      vertex -235 -13.7562 464.682
      vertex -233 -15.7562 467.996
    endloop
  endfacet
  facet normal 0.707106 0.707107 0
    outer loop
      vertex -235 -13.7562 464.682
      vertex -235 -13.7562 467.168
      vertex -233 -15.7562 467.996
    endloop
  endfacet
  facet normal 0.500001 0.707106 0.500001
    outer loop
      vertex -233 -15.7562 467.996
      vertex -235 -13.7562 467.168
      vertex -235.929 -15.7562 470.925
    endloop
  endfacet
  facet normal 0.499997 0.707108 0.500001
    outer loop
      vertex -235 -13.7562 467.168
      vertex -236.757 -13.7562 468.925
      vertex -235.929 -15.7562 470.925
    endloop
  endfacet
  facet normal 0 0.707107 0.707106
    outer loop
      vertex -239.243 -13.7562 468.925
      vertex -240.071 -15.7562 470.925
      vertex -236.757 -13.7562 468.925
    endloop
  endfacet
  facet normal 0 0.707107 0.707106
    outer loop
      vertex -240.071 -15.7562 470.925
      vertex -235.929 -15.7562 470.925
      vertex -236.757 -13.7562 468.925
    endloop
  endfacet
  facet normal -0.707106 0.707107 0
    outer loop
      vertex -241 -13.7562 464.682
      vertex -243 -15.7562 463.854
      vertex -241 -13.7562 467.168
    endloop
  endfacet
  facet normal -0.707106 0.707107 0
    outer loop
      vertex -243 -15.7562 463.854
      vertex -243 -15.7562 467.996
      vertex -241 -13.7562 467.168
    endloop
  endfacet
  facet normal -0.500001 0.707106 0.500001
    outer loop
      vertex -241 -13.7562 467.168
      vertex -243 -15.7562 467.996
      vertex -239.243 -13.7562 468.925
    endloop
  endfacet
  facet normal -0.500001 0.707107 0.499998
    outer loop
      vertex -243 -15.7562 467.996
      vertex -240.071 -15.7562 470.925
      vertex -239.243 -13.7562 468.925
    endloop
  endfacet
  facet normal 0 0.707102 -0.707111
    outer loop
      vertex -236.757 -13.7562 462.925
      vertex -235.929 -15.7562 460.925
      vertex -239.243 -13.7562 462.925
    endloop
  endfacet
  facet normal 0 0.707102 -0.707111
    outer loop
      vertex -235.929 -15.7562 460.925
      vertex -240.071 -15.7562 460.925
      vertex -239.243 -13.7562 462.925
    endloop
  endfacet
  facet normal -0.500007 0.707103 -0.499999
    outer loop
      vertex -239.243 -13.7562 462.925
      vertex -240.071 -15.7562 460.925
      vertex -241 -13.7562 464.682
    endloop
  endfacet
  facet normal -0.499997 0.707109 -0.5
    outer loop
      vertex -240.071 -15.7562 460.925
      vertex -243 -15.7562 463.854
      vertex -241 -13.7562 464.682
    endloop
  endfacet
  facet normal 0 1 0
    outer loop
      vertex -241 -13.7562 467.168
      vertex -239.243 -13.7562 468.925
      vertex -236.757 -13.7562 468.925
    endloop
  endfacet
  facet normal 0 1 0
    outer loop
      vertex -235 -13.7562 464.682
      vertex -236.757 -13.7562 462.925
      vertex -235 -13.7562 467.168
    endloop
  endfacet
  facet normal 0 1 0
    outer loop
      vertex -236.757 -13.7562 462.925
      vertex -239.243 -13.7562 462.925
      vertex -235 -13.7562 467.168
    endloop
  endfacet
  facet normal 0 1 0
    outer loop
      vertex -235 -13.7562 467.168
      vertex -239.243 -13.7562 462.925
      vertex -236.757 -13.7562 468.925
    endloop
  endfacet
  facet normal 0 1 0
    outer loop
      vertex -239.243 -13.7562 462.925
      vertex -241 -13.7562 464.682
      vertex -236.757 -13.7562 468.925
    endloop
  endfacet
  facet normal 0 1 0
    outer loop
      vertex -236.757 -13.7562 468.925
      vertex -241 -13.7562 464.682
      vertex -241 -13.7562 467.168
    endloop
  endfacet
  facet normal 0 -0.707102 -0.707112
    outer loop
      vertex -235.929 -222.207 460.925
      vertex -236.757 -224.207 462.925
      vertex -240.071 -222.207 460.925
    endloop
  endfacet
  facet normal 0 -0.707102 -0.707112
    outer loop
      vertex -236.757 -224.207 462.925
      vertex -239.243 -224.207 462.925
      vertex -240.071 -222.207 460.925
    endloop
  endfacet
  facet normal 0.500005 -0.707103 -0.500001
    outer loop
      vertex -236.757 -224.207 462.925
      vertex -235.929 -222.207 460.925
      vertex -235 -224.207 464.682
    endloop
  endfacet
  facet normal 0.499997 -0.707108 -0.500002
    outer loop
      vertex -235.929 -222.207 460.925
      vertex -233 -222.207 463.854
      vertex -235 -224.207 464.682
    endloop
  endfacet
  facet normal -0.500001 -0.707104 -0.500004
    outer loop
      vertex -240.071 -222.207 460.925
      vertex -239.243 -224.207 462.925
      vertex -243 -222.207 463.854
    endloop
  endfacet
  facet normal -0.500002 -0.70711 -0.499993
    outer loop
      vertex -239.243 -224.207 462.925
      vertex -241 -224.207 464.682
      vertex -243 -222.207 463.854
    endloop
  endfacet
  facet normal 0.707107 -0.707107 0
    outer loop
      vertex -235 -224.207 464.682
      vertex -233 -222.207 463.854
      vertex -235 -224.207 467.168
    endloop
  endfacet
  facet normal 0.707107 -0.707107 0
    outer loop
      vertex -233 -222.207 463.854
      vertex -233 -222.207 467.996
      vertex -235 -224.207 467.168
    endloop
  endfacet
  facet normal -0.707107 -0.707107 0
    outer loop
      vertex -243 -222.207 463.854
      vertex -241 -224.207 464.682
      vertex -243 -222.207 467.996
    endloop
  endfacet
  facet normal -0.707107 -0.707107 0
    outer loop
      vertex -241 -224.207 464.682
      vertex -241 -224.207 467.168
      vertex -243 -222.207 467.996
    endloop
  endfacet
  facet normal 0.5 -0.707104 0.500004
    outer loop
      vertex -235 -224.207 467.168
      vertex -233 -222.207 467.996
      vertex -236.757 -224.207 468.925
    endloop
  endfacet
  facet normal 0.5 -0.707107 0.5
    outer loop
      vertex -233 -222.207 467.996
      vertex -235.929 -222.207 470.925
      vertex -236.757 -224.207 468.925
    endloop
  endfacet
  facet normal -0.500002 -0.707105 0.5
    outer loop
      vertex -243 -222.207 467.996
      vertex -241 -224.207 467.168
      vertex -240.071 -222.207 470.925
    endloop
  endfacet
  facet normal -0.5 -0.707107 0.5
    outer loop
      vertex -241 -224.207 467.168
      vertex -239.243 -224.207 468.925
      vertex -240.071 -222.207 470.925
    endloop
  endfacet
endsolid Mesh
