solid Mesh
  facet normal 0.707106 -0.707107 0
    outer loop
      vertex 2.07107 -242.982 208.451
      vertex 2.07107 -242.982 2
      vertex 5 -240.053 208.451
    endloop
  endfacet
  facet normal 0.707106 -0.707107 0
    outer loop
      vertex 2.07107 -242.982 2
      vertex 5 -240.053 2
      vertex 5 -240.053 208.451
    endloop
  endfacet
  facet normal 0 -1 0
    outer loop
      vertex -2.07107 -242.982 208.451
      vertex -2.07107 -242.982 2
      vertex 2.07107 -242.982 208.451
    endloop
  endfacet
  facet normal 0 -1 0
    outer loop
      vertex -2.07107 -242.982 2
      vertex 2.07107 -242.982 2
      vertex 2.07107 -242.982 208.451
    endloop
  endfacet
  facet normal -0.707106 -0.707107 0
    outer loop
      vertex -5 -240.053 208.451
      vertex -5 -240.053 2
      vertex -2.07107 -242.982 208.451
    endloop
  endfacet
  facet normal -0.707106 -0.707107 0
    outer loop
      vertex -5 -240.053 2
      vertex -2.07107 -242.982 2
      vertex -2.07107 -242.982 208.451
    endloop
  endfacet
  facet normal -1 0 0
    outer loop
      vertex -5 -235.911 208.451
      vertex -5 -235.911 2
      vertex -5 -240.053 208.451
    endloop
  endfacet
  facet normal -1 0 0
    outer loop
      vertex -5 -235.911 2
      vertex -5 -240.053 2
      vertex -5 -240.053 208.451
    endloop
  endfacet
  facet normal -0.707108 0.707106 0
    outer loop
      vertex -2.07107 -232.982 208.451
      vertex -2.07107 -232.982 2
      vertex -5 -235.911 208.451
    endloop
  endfacet
  facet normal -0.707108 0.707106 0
    outer loop
      vertex -2.07107 -232.982 2
      vertex -5 -235.911 2
      vertex -5 -235.911 208.451
    endloop
  endfacet
  facet normal 0 1 0
    outer loop
      vertex 2.07107 -232.982 208.451
      vertex 2.07107 -232.982 2
      vertex -2.07107 -232.982 208.451
    endloop
  endfacet
  facet normal 0 1 0
    outer loop
      vertex 2.07107 -232.982 2
      vertex -2.07107 -232.982 2
      vertex -2.07107 -232.982 208.451
    endloop
  endfacet
  facet normal 0.707108 0.707106 0
    outer loop
      vertex 5 -235.911 208.451
      vertex 5 -235.911 2
      vertex 2.07107 -232.982 208.451
    endloop
  endfacet
  facet normal 0.707108 0.707106 0
    outer loop
      vertex 5 -235.911 2
      vertex 2.07107 -232.982 2
      vertex 2.07107 -232.982 208.451
    endloop
  endfacet
  facet normal 1 0 0
    outer loop
      vertex 5 -240.053 208.451
      vertex 5 -240.053 2
      vertex 5 -235.911 208.451
    endloop
  endfacet
  facet normal 1 0 0
    outer loop
      vertex 5 -240.053 2
      vertex 5 -235.911 2
      vertex 5 -235.911 208.451
    endloop
  endfacet
  facet normal 2.313e-15 5.58397e-15 -1
    outer loop
      vertex -3 -236.739 1.04083e-12
      vertex -1.24264 -234.982 1.05471e-12
      vertex -3 -239.224 1.02696e-12
    endloop
  endfacet
  facet normal 0 6.54205e-15 -1
    outer loop
      vertex -1.24264 -234.982 1.05471e-12
      vertex 1.24264 -234.982 1.05471e-12
      vertex -3 -239.224 1.02696e-12
    endloop
  endfacet
  facet normal -6.77466e-16 7.21951e-15 -1
    outer loop
      vertex -3 -239.224 1.02696e-12
      vertex 1.24264 -234.982 1.05471e-12
      vertex -1.24264 -240.982 1.01308e-12
    endloop
  endfacet
  facet normal -2.313e-15 5.58397e-15 -1
    outer loop
      vertex 3 -236.739 1.04083e-12
      vertex 3 -239.224 1.02696e-12
      vertex 1.24264 -234.982 1.05471e-12
    endloop
  endfacet
  facet normal 9.58081e-16 6.9389e-15 -1
    outer loop
      vertex 3 -239.224 1.02696e-12
      vertex 1.24264 -240.982 1.01308e-12
      vertex 1.24264 -234.982 1.05471e-12
    endloop
  endfacet
  facet normal 0 6.9389e-15 -1
    outer loop
      vertex 1.24264 -234.982 1.05471e-12
      vertex 1.24264 -240.982 1.01308e-12
      vertex -1.24264 -240.982 1.01308e-12
    endloop
  endfacet
  facet normal 0 0.707106 -0.707107
    outer loop
      vertex 2.07107 -232.982 2
      vertex 1.24264 -234.982 1.05471e-12
      vertex -2.07107 -232.982 2
    endloop
  endfacet
  facet normal 0 0.707106 -0.707107
    outer loop
      vertex 1.24264 -234.982 1.05471e-12
      vertex -1.24264 -234.982 1.05471e-12
      vertex -2.07107 -232.982 2
    endloop
  endfacet
  facet normal -0.5 -0.5 0.707107
    outer loop
      vertex -2.07107 -242.982 208.451
      vertex -1.24264 -240.982 210.451
      vertex -5 -240.053 208.451
    endloop
  endfacet
  facet normal -0.5 -0.500001 0.707106
    outer loop
      vertex -1.24264 -240.982 210.451
      vertex -3 -239.224 210.451
      vertex -5 -240.053 208.451
    endloop
  endfacet
  facet normal -0.707108 0 0.707106
    outer loop
      vertex -5 -240.053 208.451
      vertex -3 -239.224 210.451
      vertex -5 -235.911 208.451
    endloop
  endfacet
  facet normal -0.707108 0 0.707106
    outer loop
      vertex -3 -239.224 210.451
      vertex -3 -236.739 210.451
      vertex -5 -235.911 208.451
    endloop
  endfacet
  facet normal -0.500002 0.5 0.707105
    outer loop
      vertex -5 -235.911 208.451
      vertex -3 -236.739 210.451
      vertex -2.07107 -232.982 208.451
    endloop
  endfacet
  facet normal -0.499999 0.500001 0.707107
    outer loop
      vertex -3 -236.739 210.451
      vertex -1.24264 -234.982 210.451
      vertex -2.07107 -232.982 208.451
    endloop
  endfacet
  facet normal 0 0.707107 0.707107
    outer loop
      vertex 1.24264 -234.982 210.451
      vertex 2.07107 -232.982 208.451
      vertex -1.24264 -234.982 210.451
    endloop
  endfacet
  facet normal 0 0.707107 0.707107
    outer loop
      vertex 2.07107 -232.982 208.451
      vertex -2.07107 -232.982 208.451
      vertex -1.24264 -234.982 210.451
    endloop
  endfacet
  facet normal 0.707108 0 0.707106
    outer loop
      vertex 3 -239.224 210.451
      vertex 5 -240.053 208.451
      vertex 3 -236.739 210.451
    endloop
  endfacet
  facet normal 0.707108 0 0.707106
    outer loop
      vertex 5 -240.053 208.451
      vertex 5 -235.911 208.451
      vertex 3 -236.739 210.451
    endloop
  endfacet
  facet normal 0.500001 0.500003 0.707104
    outer loop
      vertex 3 -236.739 210.451
      vertex 5 -235.911 208.451
      vertex 1.24264 -234.982 210.451
    endloop
  endfacet
  facet normal 0.500001 0.499999 0.707106
    outer loop
      vertex 5 -235.911 208.451
      vertex 2.07107 -232.982 208.451
      vertex 1.24264 -234.982 210.451
    endloop
  endfacet
  facet normal 0 -0.707107 0.707107
    outer loop
      vertex -1.24264 -240.982 210.451
      vertex -2.07107 -242.982 208.451
      vertex 1.24264 -240.982 210.451
    endloop
  endfacet
  facet normal 0 -0.707107 0.707107
    outer loop
      vertex -2.07107 -242.982 208.451
      vertex 2.07107 -242.982 208.451
      vertex 1.24264 -240.982 210.451
    endloop
  endfacet
  facet normal 0.499999 -0.500001 0.707107
    outer loop
      vertex 1.24264 -240.982 210.451
      vertex 2.07107 -242.982 208.451
      vertex 3 -239.224 210.451
    endloop
  endfacet
  facet normal 0.5 -0.500001 0.707106
    outer loop
      vertex 2.07107 -242.982 208.451
      vertex 5 -240.053 208.451
      vertex 3 -239.224 210.451
    endloop
  endfacet
  facet normal 0 0 1
    outer loop
      vertex -3 -239.224 210.451
      vertex -1.24264 -240.982 210.451
      vertex 3 -236.739 210.451
    endloop
  endfacet
  facet normal 0 0 1
    outer loop
      vertex -1.24264 -240.982 210.451
      vertex 1.24264 -240.982 210.451
      vertex 3 -236.739 210.451
    endloop
  endfacet
  facet normal 0 0 1
    outer loop
      vertex 3 -236.739 210.451
      vertex 1.24264 -240.982 210.451
      vertex 3 -239.224 210.451
    endloop
  endfacet
  facet normal 0 0 1
    outer loop
      vertex 1.24264 -234.982 210.451
      vertex -1.24264 -234.982 210.451
      vertex 3 -236.739 210.451
    endloop
  endfacet
  facet normal 0 0 1
    outer loop
      vertex -1.24264 -234.982 210.451
      vertex -3 -236.739 210.451
      vertex 3 -236.739 210.451
    endloop
  endfacet
  facet normal 0 0 1
    outer loop
      vertex 3 -236.739 210.451
      vertex -3 -236.739 210.451
      vertex -3 -239.224 210.451
    endloop
  endfacet
  facet normal 0 -0.707106 -0.707107
    outer loop
      vertex -2.07107 -242.982 2
      vertex -1.24264 -240.982 1.01308e-12
      vertex 2.07107 -242.982 2
    endloop
  endfacet
  facet normal 0 -0.707106 -0.707107
    outer loop
      vertex -1.24264 -240.982 1.01308e-12
      vertex 1.24264 -240.982 1.01308e-12
      vertex 2.07107 -242.982 2
    endloop
  endfacet
  facet normal -0.499999 -0.5 -0.707108
    outer loop
      vertex -1.24264 -240.982 1.01308e-12
      vertex -2.07107 -242.982 2
      vertex -3 -239.224 1.02696e-12
    endloop
  endfacet
  facet normal -0.499999 -0.5 -0.707107
    outer loop
      vertex -2.07107 -242.982 2
      vertex -5 -240.053 2
      vertex -3 -239.224 1.02696e-12
    endloop
  endfacet
  facet normal 0.499999 -0.5 -0.707107
    outer loop
      vertex 2.07107 -242.982 2
      vertex 1.24264 -240.982 1.01308e-12
      vertex 5 -240.053 2
    endloop
  endfacet
  facet normal 0.499999 -0.500001 -0.707107
    outer loop
      vertex 1.24264 -240.982 1.01308e-12
      vertex 3 -239.224 1.02696e-12
      vertex 5 -240.053 2
    endloop
  endfacet
  facet normal -0.707107 3.94846e-15 -0.707107
    outer loop
      vertex -3 -239.224 1.02696e-12
      vertex -5 -240.053 2
      vertex -3 -236.739 1.04083e-12
    endloop
  endfacet
  facet normal -0.707107 0 -0.707107
    outer loop
      vertex -5 -240.053 2
      vertex -5 -235.911 2
      vertex -3 -236.739 1.04083e-12
    endloop
  endfacet
  facet normal 0.707107 0 -0.707107
    outer loop
      vertex 5 -240.053 2
      vertex 3 -239.224 1.02696e-12
      vertex 5 -235.911 2
    endloop
  endfacet
  facet normal 0.707107 3.94846e-15 -0.707107
    outer loop
      vertex 3 -239.224 1.02696e-12
      vertex 3 -236.739 1.04083e-12
      vertex 5 -235.911 2
    endloop
  endfacet
  facet normal -0.5 0.500002 -0.707105
    outer loop
      vertex -3 -236.739 1.04083e-12
      vertex -5 -235.911 2
      vertex -1.24264 -234.982 1.05471e-12
    endloop
  endfacet
  facet normal -0.500001 0.499999 -0.707107
    outer loop
      vertex -5 -235.911 2
      vertex -2.07107 -232.982 2
      vertex -1.24264 -234.982 1.05471e-12
    endloop
  endfacet
  facet normal 0.500002 0.5 -0.707106
    outer loop
      vertex 5 -235.911 2
      vertex 3 -236.739 1.04083e-12
      vertex 2.07107 -232.982 2
    endloop
  endfacet
  facet normal 0.499999 0.5 -0.707108
    outer loop
      vertex 3 -236.739 1.04083e-12
      vertex 1.24264 -234.982 1.05471e-12
      vertex 2.07107 -232.982 2
    endloop
  endfacet
endsolid Mesh
